<?xml version="1.0" encoding="UTF-8"?>
<svg width="18px" height="17px" viewBox="0 0 18 17" version="1.1" xmlns="http://www.w3.org/2000/svg" xmlns:xlink="http://www.w3.org/1999/xlink">
    <title>Arrow</title>
    <g id="Page-1" stroke="none" stroke-width="1" fill="none" fill-rule="evenodd">
        <g id="Musique" transform="translate(-303.000000, -195.000000)" fill="#4A90E2" fill-rule="nonzero">
            <path d="M311.515625,212.015625 C311.776042,212.015625 311.997396,211.924479 312.179688,211.742188 L312.179688,211.742188 L313.078125,210.882812 C313.260417,210.700521 313.345052,210.479167 313.332031,210.21875 C313.31901,209.958333 313.221354,209.736979 313.039062,209.554688 L313.039062,209.554688 L308.351562,205.0625 L319.5625,205.0625 C319.822917,205.0625 320.044271,204.971354 320.226562,204.789062 C320.408854,204.606771 320.5,204.385417 320.5,204.125 L320.5,204.125 L320.5,202.875 C320.5,202.614583 320.408854,202.393229 320.226562,202.210938 C320.044271,202.028646 319.822917,201.9375 319.5625,201.9375 L319.5625,201.9375 L308.351562,201.9375 L313.039062,197.445312 C313.221354,197.263021 313.31901,197.041667 313.332031,196.78125 C313.345052,196.520833 313.260417,196.299479 313.078125,196.117188 L313.078125,196.117188 L312.179688,195.257812 C311.997396,195.075521 311.776042,194.984375 311.515625,194.984375 C311.255208,194.984375 311.033854,195.075521 310.851562,195.257812 L310.851562,195.257812 L303.273438,202.835938 C303.091146,203.018229 303,203.239583 303,203.5 C303,203.760417 303.091146,203.981771 303.273438,204.164062 L303.273438,204.164062 L310.851562,211.742188 C311.033854,211.924479 311.255208,212.015625 311.515625,212.015625 Z" id="Arrow"></path>
        </g>
    </g>
</svg>