<?xml version="1.0" encoding="UTF-8"?>
<svg width="18px" height="17px" viewBox="0 0 18 17" version="1.1" xmlns="http://www.w3.org/2000/svg" xmlns:xlink="http://www.w3.org/1999/xlink">
    <title>Arrow-right</title>
    <g id="Page-1" stroke="none" stroke-width="1" fill="none" fill-rule="evenodd">
        <g id="Musique" transform="translate(-446.000000, -195.000000)" fill="#4A90E2" fill-rule="nonzero">
            <path d="M454.984375,212.015625 C455.244792,212.015625 455.466146,211.924479 455.648438,211.742188 L455.648438,211.742188 L463.226562,204.164062 C463.408854,203.981771 463.5,203.760417 463.5,203.5 C463.5,203.239583 463.408854,203.018229 463.226562,202.835938 L463.226562,202.835938 L455.648438,195.257812 C455.466146,195.075521 455.244792,194.984375 454.984375,194.984375 C454.723958,194.984375 454.502604,195.075521 454.320312,195.257812 L454.320312,195.257812 L453.460938,196.117188 C453.252604,196.299479 453.154948,196.520833 453.167969,196.78125 C453.18099,197.041667 453.278646,197.263021 453.460938,197.445312 L453.460938,197.445312 L458.148438,201.9375 L446.9375,201.9375 C446.677083,201.9375 446.455729,202.028646 446.273438,202.210938 C446.091146,202.393229 446,202.614583 446,202.875 L446,202.875 L446,204.125 C446,204.385417 446.091146,204.606771 446.273438,204.789062 C446.455729,204.971354 446.677083,205.0625 446.9375,205.0625 L446.9375,205.0625 L458.148438,205.0625 L453.460938,209.554688 C453.278646,209.736979 453.18099,209.958333 453.167969,210.21875 C453.154948,210.479167 453.252604,210.700521 453.460938,210.882812 L453.460938,210.882812 L454.320312,211.742188 C454.502604,211.924479 454.723958,212.015625 454.984375,212.015625 Z" id="Arrow-right"></path>
        </g>
    </g>
</svg>