<?xml version="1.0" encoding="UTF-8" standalone="no"?>
<svg
   xmlns:dc="http://purl.org/dc/elements/1.1/"
   xmlns:cc="http://creativecommons.org/ns#"
   xmlns:rdf="http://www.w3.org/1999/02/22-rdf-syntax-ns#"
   xmlns:svg="http://www.w3.org/2000/svg"
   xmlns="http://www.w3.org/2000/svg"
   xmlns:sodipodi="http://sodipodi.sourceforge.net/DTD/sodipodi-0.dtd"
   xmlns:inkscape="http://www.inkscape.org/namespaces/inkscape"
   viewBox="0 0 100 100"
   version="1.1"
   id="svg110"
   sodipodi:docname="Caisse_shadow.svg"
   width="100"
   height="100"
   inkscape:version="0.92.3 (2405546, 2018-03-11)"
   inkscape:export-filename="D:\Travail\2018 - ..., Web Dev\2018 - Bebra's Tasks\tasks\v01\Bebras\2020\2020-FR-01-play-music\assets\Caisse_shadow.png"
   inkscape:export-xdpi="96"
   inkscape:export-ydpi="96">
  <metadata
     id="metadata114">
    <rdf:RDF>
      <cc:Work
         rdf:about="">
        <dc:format>image/svg+xml</dc:format>
        <dc:type
           rdf:resource="http://purl.org/dc/dcmitype/StillImage" />
        <dc:title>Caisse</dc:title>
      </cc:Work>
    </rdf:RDF>
  </metadata>
  <sodipodi:namedview
     pagecolor="#ffffff"
     bordercolor="#666666"
     borderopacity="1"
     objecttolerance="10"
     gridtolerance="10"
     guidetolerance="10"
     inkscape:pageopacity="0"
     inkscape:pageshadow="2"
     inkscape:window-width="1920"
     inkscape:window-height="1017"
     id="namedview112"
     showgrid="false"
     inkscape:zoom="5.6327481"
     inkscape:cx="23.415179"
     inkscape:cy="47.337021"
     inkscape:window-x="-8"
     inkscape:window-y="-8"
     inkscape:window-maximized="1"
     inkscape:current-layer="svg110" />
  <defs
     id="defs4">
    <style
       id="style2">.cls-1{fill:#e8e8e8;}.cls-2{fill:#c2c1c0;}.cls-3{fill:#fff;}.cls-4{fill:#e2e2e2;}.cls-5{fill:#558dca;}.cls-6{fill:#2f5e95;}.cls-7{fill:#fffaf0;}.cls-8{fill:#e5d095;}.cls-9{fill:#ccb887;}</style>
  </defs>
  <title
     id="title6">Caisse</title>
  <g
     id="Layer_2"
     data-name="Layer 2"
     transform="matrix(0.29621318,0,0,0.29621318,4.9224894,14.898963)"
     style="fill:#c8c8c8;fill-opacity:1">
    <g
       id="Layer_1-2"
       data-name="Layer 1"
       style="fill:#c8c8c8;fill-opacity:1">
      <path
         class="cls-1"
         d="m 46.48,177.22 h -3.15 v 20.7 c 0,1.15 3.15,1.15 3.15,0 z"
         id="path8"
         inkscape:connector-curvature="0"
         style="fill:#c8c8c8;fill-opacity:1" />
      <path
         class="cls-1"
         d="m 47.67,176.77 c 0,1.39 -5.52,1.39 -5.52,0 v -46.12 h 5.52 z"
         id="path10"
         inkscape:connector-curvature="0"
         style="fill:#c8c8c8;fill-opacity:1" />
      <path
         class="cls-2"
         d="m 47.67,176.77 a 1,1 0 1 1 -1.92,0 v -46.12 h 1.92 z"
         id="path12"
         inkscape:connector-curvature="0"
         style="fill:#c8c8c8;fill-opacity:1" />
      <ellipse
         class="cls-3"
         cx="44.900002"
         cy="130.64999"
         rx="2.76"
         ry="0.73000002"
         id="ellipse14"
         style="fill:#c8c8c8;fill-opacity:1" />
      <path
         class="cls-1"
         d="m 46.48,117.17 h -3.15 v 12.94 c 0,0.72 3.15,0.72 3.15,0 z"
         id="path16"
         inkscape:connector-curvature="0"
         style="fill:#c8c8c8;fill-opacity:1" />
      <path
         class="cls-1"
         d="m 297.55,177.22 h -3.15 v 20.7 c 0,1.15 3.15,1.15 3.15,0 z"
         id="path18"
         inkscape:connector-curvature="0"
         style="fill:#c8c8c8;fill-opacity:1" />
      <path
         class="cls-1"
         d="m 298.73,176.77 c 0,1.39 -5.52,1.39 -5.52,0 v -46.12 h 5.52 z"
         id="path20"
         inkscape:connector-curvature="0"
         style="fill:#c8c8c8;fill-opacity:1" />
      <path
         class="cls-2"
         d="m 298.73,176.77 a 1,1 0 1 1 -1.92,0 v -46.12 h 1.92 z"
         id="path22"
         inkscape:connector-curvature="0"
         style="fill:#c8c8c8;fill-opacity:1" />
      <ellipse
         class="cls-3"
         cx="295.97"
         cy="130.64999"
         rx="2.76"
         ry="0.73000002"
         id="ellipse24"
         style="fill:#c8c8c8;fill-opacity:1" />
      <path
         class="cls-1"
         d="m 297.55,117.17 h -3.15 v 12.94 c 0,0.72 3.15,0.72 3.15,0 z"
         id="path26"
         inkscape:connector-curvature="0"
         style="fill:#c8c8c8;fill-opacity:1" />
      <path
         class="cls-1"
         d="M 170.21,237 C 99.15,237 41.34,224.55 41.34,212.34 v -15 h 257.31 v 15 c 0,12.22 -57.39,24.66 -128.44,24.66 z"
         id="path28"
         inkscape:connector-curvature="0"
         style="fill:#c8c8c8;fill-opacity:1" />
      <path
         class="cls-4"
         d="m 298.65,199 c 0,16.07 -57.5,29.1 -128.44,29.1 -70.94,0 -128.44,-13.04 -128.44,-29.1 0,-18.06 36.36,-29.1 128.44,-29.1 87.94,-0.01 128.44,10.73 128.44,29.1 z"
         id="path30"
         inkscape:connector-curvature="0"
         style="fill:#c8c8c8;fill-opacity:1" />
      <path
         class="cls-5"
         d="m 293.12,192.07 c 0,38.66 -246.91,38.66 -246.91,0 v -73.36 h 246.91 z"
         id="path32"
         inkscape:connector-curvature="0"
         style="fill:#c8c8c8;fill-opacity:1" />
      <path
         class="cls-6"
         d="M 293.12,118.71 H 46.21 v 9.21 l 1.71,-3.14 c 93.93,63.71 226.5,24.73 244.87,69.66 l -3.92,5.94 c 2.75,-2.54 4.25,-5.31 4.25,-8.32 z"
         id="path34"
         inkscape:connector-curvature="0"
         style="fill:#c8c8c8;fill-opacity:1" />
      <path
         class="cls-6"
         d="m 265.29,152 c 0,-0.05 0,-0.1 0,-0.15 a 3.84,3.84 0 0 0 -0.39,-0.86 l -0.09,-0.13 a 3.91,3.91 0 0 0 -0.62,-0.73 h -0.06 a 3.94,3.94 0 0 0 -0.77,-0.52 h -0.07 v 0 a 3.93,3.93 0 0 0 -0.68,-0.27 v -2.5 0 c 0,-0.25 -0.47,-0.46 -1.18,-0.6 v -12.97 h -3.15 v 12.88 c -0.71,0.13 -1.18,0.35 -1.18,0.6 v 2.41 a 3.91,3.91 0 0 0 -3.3,3.84 v 33 a 3.88,3.88 0 0 0 0.56,2 v 0 a 3.91,3.91 0 0 0 1.34,1.35 l 0.15,0.08 a 3.86,3.86 0 0 0 0.69,0.29 l 0.23,0.07 0.28,0.06 v 3 c 0,0.42 0.5,0.7 1.18,0.87 V 214 c 1.67,-0.46 2.79,-1 3.15,-1.79 v -18.34 a 1,1 0 0 0 1.18,-1 v -3.1 a 3.9,3.9 0 0 0 2.86,-3.75 V 153 a 3.85,3.85 0 0 0 -0.13,-1 z m -8.24,-2.79 z"
         id="path36"
         inkscape:connector-curvature="0"
         style="fill:#c8c8c8;fill-opacity:1" />
      <path
         class="cls-1"
         d="M 170.21,142.2 C 99.15,142.2 41.34,129.75 41.34,117.54 v -15 h 257.31 v 15 c 0,12.2 -57.39,24.66 -128.44,24.66 z"
         id="path38"
         inkscape:connector-curvature="0"
         style="fill:#c8c8c8;fill-opacity:1" />
      <path
         class="cls-4"
         d="m 298.65,104.17 c 0,16.07 -57.5,29.1 -128.44,29.1 -70.94,0 -128.44,-13 -128.44,-29.1 0,-18.06 36.36,-29.1 128.44,-29.1 87.94,0 128.44,10.74 128.44,29.1 z"
         id="path40"
         inkscape:connector-curvature="0"
         style="fill:#c8c8c8;fill-opacity:1" />
      <path
         class="cls-2"
         d="m 170.21,78.23 c -66.26,0 -120,9.23 -120,20.62 v 5.32 h 240 v -5.32 c -0.02,-11.38 -53.74,-20.62 -120,-20.62 z"
         id="path42"
         inkscape:connector-curvature="0"
         style="fill:#c8c8c8;fill-opacity:1" />
      <ellipse
         class="cls-7"
         cx="170.21001"
         cy="104.17"
         rx="119.98"
         ry="20.620001"
         id="ellipse44"
         style="fill:#c8c8c8;fill-opacity:1" />
      <path
         class="cls-1"
         d="m 258.43,193.31 h -3.15 V 214 c 0,1.15 3.15,1.15 3.15,0 z"
         id="path46"
         inkscape:connector-curvature="0"
         style="fill:#c8c8c8;fill-opacity:1" />
      <path
         class="cls-1"
         d="m 259.62,192.86 c 0,1.39 -5.52,1.39 -5.52,0 v -46.11 h 5.52 z"
         id="path48"
         inkscape:connector-curvature="0"
         style="fill:#c8c8c8;fill-opacity:1" />
      <path
         class="cls-2"
         d="m 259.62,192.86 a 1,1 0 1 1 -1.92,0 v -46.11 h 1.92 z"
         id="path50"
         inkscape:connector-curvature="0"
         style="fill:#c8c8c8;fill-opacity:1" />
      <ellipse
         class="cls-3"
         cx="256.85999"
         cy="146.75"
         rx="2.76"
         ry="0.73000002"
         id="ellipse52"
         style="fill:#c8c8c8;fill-opacity:1" />
      <path
         class="cls-1"
         d="m 258.43,133.27 h -3.15 v 12.94 c 0,0.72 3.15,0.72 3.15,0 z"
         id="path54"
         inkscape:connector-curvature="0"
         style="fill:#c8c8c8;fill-opacity:1" />
      <path
         class="cls-1"
         d="m 38.78,133.27 h 7.43 v 38.12 h -7.43 a 3.7,3.7 0 0 1 -3.7,-3.7 V 137 a 3.7,3.7 0 0 1 3.7,-3.73 z"
         id="path56"
         inkscape:connector-curvature="0"
         style="fill:#c8c8c8;fill-opacity:1" />
      <path
         class="cls-2"
         d="m 41.74,133.27 h 4.47 v 38.12 h -4.47 a 3,3 0 0 1 -3,-3 v -32 a 3,3 0 0 1 3,-3.12 z"
         id="path58"
         inkscape:connector-curvature="0"
         style="fill:#c8c8c8;fill-opacity:1" />
      <path
         class="cls-2"
         d="m 255,192.85 3.75,-0.66 a 4.87,4.87 0 0 0 3.86,-4.66 V 154 a 3.2,3.2 0 0 0 -3.86,-3.3 l -3.75,0.66 a 4.87,4.87 0 0 0 -3.86,4.66 v 33.52 a 3.2,3.2 0 0 0 3.86,3.31 z"
         id="path60"
         inkscape:connector-curvature="0"
         style="fill:#c8c8c8;fill-opacity:1" />
      <path
         class="cls-1"
         d="m 255,151.39 3.75,-0.66 a 3.37,3.37 0 0 1 2.09,0.28 l -2.19,0.39 a 4.87,4.87 0 0 0 -3.86,4.66 v 33.52 a 3.26,3.26 0 0 0 1.76,3 l -1.56,0.28 a 3.2,3.2 0 0 1 -3.86,-3.3 V 156 a 4.87,4.87 0 0 1 3.87,-4.61 z"
         id="path62"
         inkscape:connector-curvature="0"
         style="fill:#c8c8c8;fill-opacity:1" />
      <path
         class="cls-1"
         d="m 296.93,133.27 h 7.43 v 38.12 h -7.43 a 3.7,3.7 0 0 1 -3.7,-3.7 V 137 a 3.7,3.7 0 0 1 3.7,-3.73 z"
         transform="rotate(-180,298.795,152.33)"
         id="path64"
         inkscape:connector-curvature="0"
         style="fill:#c8c8c8;fill-opacity:1" />
      <path
         class="cls-2"
         d="m 296.27,133.27 h 4.47 v 38.12 h -4.47 a 3,3 0 0 1 -3,-3 v -32 a 3,3 0 0 1 3,-3 z"
         transform="rotate(-180,296.985,152.33)"
         id="path66"
         inkscape:connector-curvature="0"
         style="fill:#c8c8c8;fill-opacity:1" />
      <path
         class="cls-6"
         d="m 173.32,160.92 c 0,-0.05 0,-0.1 0,-0.15 a 3.84,3.84 0 0 0 -0.39,-0.86 l -0.09,-0.13 a 3.91,3.91 0 0 0 -0.62,-0.73 h -0.06 a 3.94,3.94 0 0 0 -0.77,-0.52 h -0.07 v 0 a 3.93,3.93 0 0 0 -0.68,-0.27 v -2.5 0 c 0,-0.25 -0.47,-0.46 -1.18,-0.6 V 142.2 h -3.15 v 12.88 c -0.71,0.13 -1.18,0.35 -1.18,0.6 v 2.41 a 3.91,3.91 0 0 0 -3.25,3.85 v 33 a 3.88,3.88 0 0 0 0.56,2 v 0 a 3.91,3.91 0 0 0 1.34,1.35 l 0.15,0.08 a 3.86,3.86 0 0 0 0.69,0.29 l 0.23,0.07 0.28,0.06 v 3 c 0,0.42 0.5,0.7 1.18,0.87 v 20.28 c 0,0.13 3.15,-0.74 3.15,-1.9 v -18.25 a 1,1 0 0 0 1.18,-1 v -3.1 a 3.9,3.9 0 0 0 2.86,-3.75 v -33 a 3.85,3.85 0 0 0 -0.18,-1.02 z m -8.24,-2.79 z"
         id="path68"
         inkscape:connector-curvature="0"
         style="fill:#c8c8c8;fill-opacity:1" />
      <path
         class="cls-6"
         d="m 91,154.29 c 0,-0.05 0,-0.1 0,-0.15 a 3.84,3.84 0 0 0 -0.39,-0.86 l -0.09,-0.13 A 3.91,3.91 0 0 0 89.9,152.42 H 89.84 A 3.94,3.94 0 0 0 89.07,151.9 H 89 v 0 a 3.93,3.93 0 0 0 -0.68,-0.27 v -2.63 0 c 0,-0.25 -0.47,-0.46 -1.18,-0.6 V 135.57 H 84 v 12.88 c -0.71,0.13 -1.18,0.35 -1.18,0.6 v 2.41 a 3.91,3.91 0 0 0 -3.25,3.85 v 33 a 3.88,3.88 0 0 0 0.56,2 v 0 a 3.91,3.91 0 0 0 1.34,1.35 l 0.15,0.08 a 3.86,3.86 0 0 0 0.69,0.29 l 0.23,0.07 0.28,0.06 v 3 c 0,0.42 0.5,0.7 1.18,0.87 v 18.5 c 0.2,0.07 3.15,0 3.15,0 v -18.36 a 1,1 0 0 0 1.18,-1 v -3.1 a 3.9,3.9 0 0 0 2.86,-3.75 v -33 A 3.85,3.85 0 0 0 91,154.29 Z m -8.24,-2.79 z"
         id="path70"
         inkscape:connector-curvature="0"
         style="fill:#c8c8c8;fill-opacity:1" />
      <path
         class="cls-1"
         d="m 167.34,201.79 c 0,1.39 -5.52,1.39 -5.52,0 v -46.11 h 5.52 z"
         id="path72"
         inkscape:connector-curvature="0"
         style="fill:#c8c8c8;fill-opacity:1" />
      <path
         class="cls-2"
         d="m 167.34,201.79 a 1,1 0 1 1 -1.92,0 v -46.11 h 1.92 z"
         id="path74"
         inkscape:connector-curvature="0"
         style="fill:#c8c8c8;fill-opacity:1" />
      <ellipse
         class="cls-3"
         cx="164.58"
         cy="155.67999"
         rx="2.76"
         ry="0.73000002"
         id="ellipse76"
         style="fill:#c8c8c8;fill-opacity:1" />
      <path
         class="cls-1"
         d="m 167.33,158.17 c -0.09,0.38 -1.28,0.68 -2.74,0.68 -1.46,0 -2.76,-0.33 -2.76,-0.73 0,0 0,0 0,0 a 3.91,3.91 0 0 0 -3.27,3.85 v 33 a 3.92,3.92 0 0 0 3.92,3.92 h 3.81 a 3.92,3.92 0 0 0 3.92,-3.92 v -33 a 3.91,3.91 0 0 0 -2.88,-3.8 z"
         id="path78"
         inkscape:connector-curvature="0"
         style="fill:#c8c8c8;fill-opacity:1" />
      <path
         class="cls-2"
         d="m 168,158.43 a 3.88,3.88 0 0 1 0.56,2 v 33 a 3.92,3.92 0 0 1 -3.92,3.92 h -3.81 a 3.88,3.88 0 0 1 -1.73,-0.42 3.9,3.9 0 0 0 3.35,1.92 h 3.81 a 3.92,3.92 0 0 0 3.92,-3.92 v -33 a 3.9,3.9 0 0 0 -2.18,-3.5 z"
         id="path80"
         inkscape:connector-curvature="0"
         style="fill:#c8c8c8;fill-opacity:1" />
      <path
         class="cls-1"
         d="M 166.16,142.2 H 163 v 12.94 c 0,0.72 3.15,0.72 3.15,0 z"
         id="path82"
         inkscape:connector-curvature="0"
         style="fill:#c8c8c8;fill-opacity:1" />
      <path
         class="cls-1"
         d="M 166.16,202.24 H 163 v 20.7 c 0,1.15 3.15,1.15 3.15,0 z"
         id="path84"
         inkscape:connector-curvature="0"
         style="fill:#c8c8c8;fill-opacity:1" />
      <path
         class="cls-1"
         d="M 84.16,193.31 H 81 V 214 c 0,1.15 3.15,1.15 3.15,0 z"
         id="path86"
         inkscape:connector-curvature="0"
         style="fill:#c8c8c8;fill-opacity:1" />
      <path
         class="cls-1"
         d="m 85.34,192.86 c 0,1.39 -5.52,1.39 -5.52,0 v -46.11 h 5.52 z"
         id="path88"
         inkscape:connector-curvature="0"
         style="fill:#c8c8c8;fill-opacity:1" />
      <path
         class="cls-2"
         d="m 85.34,192.86 a 1,1 0 1 1 -1.92,0 v -46.11 h 1.92 z"
         id="path90"
         inkscape:connector-curvature="0"
         style="fill:#c8c8c8;fill-opacity:1" />
      <ellipse
         class="cls-3"
         cx="82.580002"
         cy="146.75"
         rx="2.76"
         ry="0.73000002"
         id="ellipse92"
         style="fill:#c8c8c8;fill-opacity:1" />
      <path
         class="cls-1"
         d="M 84.16,133.27 H 81 v 12.94 c 0,0.72 3.15,0.72 3.15,0 z"
         id="path94"
         inkscape:connector-curvature="0"
         style="fill:#c8c8c8;fill-opacity:1" />
      <path
         class="cls-1"
         d="m 84.46,192.85 -3.75,-0.66 a 4.87,4.87 0 0 1 -3.86,-4.66 V 154 a 3.2,3.2 0 0 1 3.86,-3.3 l 3.75,0.66 a 4.87,4.87 0 0 1 3.85,4.64 v 33.52 a 3.2,3.2 0 0 1 -3.85,3.33 z"
         id="path96"
         inkscape:connector-curvature="0"
         style="fill:#c8c8c8;fill-opacity:1" />
      <path
         class="cls-2"
         d="m 84.46,151.39 -3.75,-0.66 a 3.37,3.37 0 0 0 -2.09,0.28 l 2.19,0.39 a 4.87,4.87 0 0 1 3.85,4.6 v 33.52 a 3.26,3.26 0 0 1 -1.76,3 l 1.56,0.28 a 3.2,3.2 0 0 0 3.86,-3.3 V 156 a 4.87,4.87 0 0 0 -3.86,-4.61 z"
         id="path98"
         inkscape:connector-curvature="0"
         style="fill:#c8c8c8;fill-opacity:1" />
      <path
         class="cls-8"
         d="m 195.74,78.73 a 7.75,7.75 0 0 0 -5.43,-0.36 33.4,33.4 0 0 0 -7,-4.78 L 5.7,0.31 A 4.13,4.13 0 0 0 0.31,2.55 v 0 a 4.13,4.13 0 0 0 2.24,5.39 l 177.58,73.28 a 33.4,33.4 0 0 0 8.37,1.58 7.75,7.75 0 0 0 4.1,3.57 c 3.24,1.33 6.56,0.71 7.43,-1.4 0.87,-2.11 -1.03,-4.9 -4.29,-6.24 z"
         id="path100"
         inkscape:connector-curvature="0"
         style="fill:#c8c8c8;fill-opacity:1" />
      <path
         class="cls-9"
         d="m 193.67,83.75 a 7.75,7.75 0 0 1 -4.1,-3.57 33.4,33.4 0 0 1 -8.37,-1.58 L 3.63,5.33 a 4.12,4.12 0 0 1 -2.54,-4 4.09,4.09 0 0 0 -0.78,1.22 v 0 a 4.13,4.13 0 0 0 2.24,5.39 l 177.58,73.28 a 33.4,33.4 0 0 0 8.37,1.58 7.75,7.75 0 0 0 4.1,3.57 c 3.24,1.33 6.56,0.71 7.43,-1.4 a 2.87,2.87 0 0 0 0.18,-1.46 c -1.43,1.12 -4.01,1.28 -6.54,0.24 z"
         id="path102"
         inkscape:connector-curvature="0"
         style="fill:#c8c8c8;fill-opacity:1" />
      <path
         class="cls-8"
         d="m 87.07,91.76 a 7.75,7.75 0 0 1 5.43,-0.36 33.4,33.4 0 0 1 7,-4.78 L 277.12,13.34 a 4.13,4.13 0 0 1 5.39,2.24 v 0 A 4.13,4.13 0 0 1 280.27,21 L 102.69,94.24 a 33.4,33.4 0 0 1 -8.37,1.58 7.75,7.75 0 0 1 -4.1,3.57 c -3.24,1.33 -6.56,0.71 -7.43,-1.4 -0.87,-2.11 1.05,-4.89 4.28,-6.23 z"
         id="path104"
         inkscape:connector-curvature="0"
         style="fill:#c8c8c8;fill-opacity:1" />
      <path
         class="cls-9"
         d="m 89.14,96.78 a 7.75,7.75 0 0 0 4.1,-3.57 33.4,33.4 0 0 0 8.37,-1.58 L 279.19,18.36 a 4.12,4.12 0 0 0 2.54,-4 4.09,4.09 0 0 1 0.78,1.21 v 0 A 4.13,4.13 0 0 1 280.27,21 L 102.69,94.24 a 33.4,33.4 0 0 1 -8.37,1.58 7.75,7.75 0 0 1 -4.1,3.57 c -3.24,1.33 -6.56,0.71 -7.43,-1.4 a 2.87,2.87 0 0 1 -0.18,-1.46 c 1.39,1.13 4,1.29 6.53,0.25 z"
         id="path106"
         inkscape:connector-curvature="0"
         style="fill:#c8c8c8;fill-opacity:1" />
    </g>
  </g>
</svg>
