<?xml version="1.0" encoding="UTF-8" standalone="no"?>
<svg
   xmlns:dc="http://purl.org/dc/elements/1.1/"
   xmlns:cc="http://creativecommons.org/ns#"
   xmlns:rdf="http://www.w3.org/1999/02/22-rdf-syntax-ns#"
   xmlns:svg="http://www.w3.org/2000/svg"
   xmlns="http://www.w3.org/2000/svg"
   xmlns:sodipodi="http://sodipodi.sourceforge.net/DTD/sodipodi-0.dtd"
   xmlns:inkscape="http://www.inkscape.org/namespaces/inkscape"
   viewBox="0 0 99.999998 99.999997"
   version="1.1"
   id="svg120"
   sodipodi:docname="Sax.svg"
   width="100"
   height="100"
   inkscape:export-filename="D:\Travail\2018 - ..., Web Dev\2018 - Bebra's Tasks\tasks\v01\Bebras\2020\2020-FR-01-play-music\assets\Sax.png"
   inkscape:export-xdpi="96"
   inkscape:export-ydpi="96"
   inkscape:version="0.92.3 (2405546, 2018-03-11)">
  <metadata
     id="metadata124">
    <rdf:RDF>
      <cc:Work
         rdf:about="">
        <dc:format>image/svg+xml</dc:format>
        <dc:type
           rdf:resource="http://purl.org/dc/dcmitype/StillImage" />
        <dc:title>Sax</dc:title>
      </cc:Work>
    </rdf:RDF>
  </metadata>
  <sodipodi:namedview
     pagecolor="#ffffff"
     bordercolor="#666666"
     borderopacity="1"
     objecttolerance="10"
     gridtolerance="10"
     guidetolerance="10"
     inkscape:pageopacity="0"
     inkscape:pageshadow="2"
     inkscape:window-width="1920"
     inkscape:window-height="1017"
     id="namedview122"
     showgrid="false"
     inkscape:zoom="2.8283796"
     inkscape:cx="46.20639"
     inkscape:cy="34.251099"
     inkscape:window-x="-8"
     inkscape:window-y="-8"
     inkscape:window-maximized="1"
     inkscape:current-layer="svg120" />
  <defs
     id="defs4">
    <style
       id="style2">.cls-1{fill:#fff4d0;}.cls-2{fill:#d6a854;}.cls-3{fill:#f2b529;}.cls-4{fill:#ffd343;}.cls-5{fill:#374f9a;}.cls-6{fill:#2a3d71;}.cls-7{fill:#bbb;}.cls-8{fill:none;stroke:#ffd343;stroke-linecap:round;stroke-miterlimit:10;stroke-width:2.71px;}</style>
  </defs>
  <title
     id="title6">Sax</title>
  <g
     id="Layer_2"
     data-name="Layer 2"
     transform="matrix(0.27063134,0,0,0.27063134,24.621118,4.827036)">
    <g
       id="Layer_1-2"
       data-name="Layer 1">
      <polygon
         class="cls-1"
         points="107.45,23.08 69.69,4.17 86.89,13.95 90.57,16.7 106.29,25.41 "
         id="polygon8"
         style="fill:#fff4d0" />
      <path
         class="cls-2"
         d="m 18.79,248 c -0.54,0.79 -1.4,1.16 -1.88,0.82 l -1.83,-1.27 c -0.49,-0.34 -0.43,-1.26 0.13,-2.05 l 45.86,-65.76 c 0.56,-0.8 1.39,-1.16 1.88,-0.82 l 1.83,1.27 c 0.48,0.34 0.43,1.26 -0.13,2.05 z"
         id="path10"
         inkscape:connector-curvature="0"
         style="fill:#d6a854" />
      <rect
         class="cls-2"
         x="64.970001"
         y="183.23"
         width="3.03"
         height="11.8"
         transform="matrix(0.57,-0.82,0.82,0.57,-126.68,135.46)"
         id="rect12"
         style="fill:#d6a854" />
      <polygon
         class="cls-2"
         points="29.84,251.99 20.16,245.24 21.9,242.75 31.57,249.5 "
         id="polygon14"
         style="fill:#d6a854" />
      <path
         class="cls-3"
         d="m 105,20.74 2.58,-4 c 0,0 18.53,3.91 34.2,6.93 15.67,3.02 30,3.08 35.08,22.38 2.74,10.38 -6.91,23 -13.35,34.39 -5.93,10.48 -115.66,209.5 -115.66,209.5 0,0 -3.77,6.48 5.66,11.09 4.56,2.23 14.73,-14.13 14.73,-14.13 0,0 26.94,-55.73 47.36,-72.9 a 147.21,147.21 0 0 1 28.3,-18.72 c 7.62,-3.87 10.75,-6.76 12.5,-10.87 1.75,-4.11 4.95,-9.77 9.3,-3.14 4.35,6.63 13,32 15.8,41.83 2.8,9.83 11.59,26.93 -3.09,19 -14.68,-7.93 -24.73,-5 -34.28,3.95 -9.55,8.95 -53.57,71.19 -53.57,71.19 0,0 -21.23,25.88 -48.61,13 C 14.57,317.36 -1.45,289.29 14.22,264.74 29.89,240.19 158.87,53.36 158.87,53.36 c 0,0 6.51,-13.22 -12.67,-16.46 C 123.4,33.05 105,20.74 105,20.74 Z"
         id="path16"
         inkscape:connector-curvature="0"
         style="fill:#f2b529" />
      <path
         class="cls-4"
         d="m 20.16,273.55 c 3.82,-9.21 14.66,-24.87 20.51,-32.95 31,-42.79 111.38,-162.28 111.38,-162.28 -0.17,-4.38 -1.64,-7.13 -3.83,-9 l 7,4.31 c 0,0 8.46,-13.34 9,-14.71 2.57,-7 2.22,-15.71 -3,-21.12 -3.35,-3.5 -8.14,-5.14 -12.74,-6.66 L 107.11,17.45 105,20.74 c 0,0 18.4,12.31 41.19,16.16 19.18,3.24 12.67,16.46 12.67,16.46 0,0 -128.99,186.73 -144.65,211.28 -11.83,18.55 -5.58,39.06 10,53.57 C 15.23,307.39 12.52,292 20.16,273.55 Z"
         id="path18"
         inkscape:connector-curvature="0"
         style="fill:#ffd343" />
      <path
         class="cls-4"
         d="m 151.66,133 c -2.25,3.81 -6,5.75 -8.45,4.32 -2.45,-1.43 -2.59,-5.68 -0.35,-9.49 2.24,-3.81 6,-5.74 8.45,-4.31 2.45,1.43 2.59,5.66 0.35,9.48 z"
         id="path20"
         inkscape:connector-curvature="0"
         style="fill:#ffd343" />
      <path
         class="cls-4"
         d="m 150,132.81 a 2.65,2.65 0 0 1 -3.64,0.95 l -9,-5.28 a 2.67,2.67 0 0 1 -0.95,-3.65 l 0.68,-1.14 a 2.67,2.67 0 0 1 3.65,-1 l 9,5.29 a 2.66,2.66 0 0 1 0.95,3.65 z"
         id="path22"
         inkscape:connector-curvature="0"
         style="fill:#ffd343" />
      <path
         class="cls-4"
         d="m 138.59,155.26 c -2.24,3.81 -6,5.74 -8.45,4.31 -2.45,-1.43 -2.59,-5.67 -0.35,-9.48 2.24,-3.81 6,-5.75 8.45,-4.32 2.45,1.43 2.58,5.67 0.35,9.49 z"
         id="path24"
         inkscape:connector-curvature="0"
         style="fill:#ffd343" />
      <path
         class="cls-4"
         d="m 137,155.07 a 2.67,2.67 0 0 1 -3.65,0.95 l -9,-5.29 a 2.67,2.67 0 0 1 -0.95,-3.64 l 0.68,-1.14 a 2.66,2.66 0 0 1 3.64,-1 l 9,5.28 a 2.67,2.67 0 0 1 1,3.65 z"
         id="path26"
         inkscape:connector-curvature="0"
         style="fill:#ffd343" />
      <path
         class="cls-4"
         d="m 125.51,177.51 c -2.23,3.81 -6,5.74 -8.45,4.32 -2.45,-1.42 -2.58,-5.68 -0.34,-9.49 2.24,-3.81 6,-5.74 8.45,-4.31 2.45,1.43 2.57,5.68 0.34,9.48 z"
         id="path28"
         inkscape:connector-curvature="0"
         style="fill:#ffd343" />
      <path
         class="cls-4"
         d="m 123.88,177.34 a 2.68,2.68 0 0 1 -3.65,0.95 l -9,-5.29 a 2.66,2.66 0 0 1 -1,-3.64 l 0.67,-1.15 a 2.66,2.66 0 0 1 3.65,-0.94 l 9,5.28 a 2.67,2.67 0 0 1 0.95,3.65 z"
         id="path30"
         inkscape:connector-curvature="0"
         style="fill:#ffd343" />
      <path
         class="cls-4"
         d="m 113,200.17 c -2.24,3.8 -6,5.74 -8.45,4.31 -2.45,-1.43 -2.59,-5.68 -0.35,-9.48 2.24,-3.8 6,-5.74 8.45,-4.32 2.45,1.42 2.63,5.68 0.35,9.49 z"
         id="path32"
         inkscape:connector-curvature="0"
         style="fill:#ffd343" />
      <path
         class="cls-4"
         d="m 111.42,200 a 2.67,2.67 0 0 1 -3.65,1 l -9,-5.3 a 2.66,2.66 0 0 1 -1,-3.64 l 0.68,-1.15 a 2.67,2.67 0 0 1 3.65,-0.94 l 9,5.28 a 2.68,2.68 0 0 1 0.94,3.65 z"
         id="path34"
         inkscape:connector-curvature="0"
         style="fill:#ffd343" />
      <path
         class="cls-4"
         d="m 100.58,222.83 c -2.25,3.81 -6,5.75 -8.47,4.32 -2.47,-1.43 -2.58,-5.68 -0.34,-9.49 2.24,-3.81 6,-5.74 8.45,-4.32 2.45,1.42 2.6,5.66 0.36,9.49 z"
         id="path36"
         inkscape:connector-curvature="0"
         style="fill:#ffd343" />
      <path
         class="cls-4"
         d="m 99,222.65 a 2.66,2.66 0 0 1 -3.65,0.94 l -9,-5.28 A 2.68,2.68 0 0 1 85.4,214.66 L 86,213.5 a 2.67,2.67 0 0 1 3.65,-0.94 l 9,5.28 a 2.66,2.66 0 0 1 0.95,3.64 z"
         id="path38"
         inkscape:connector-curvature="0"
         style="fill:#ffd343" />
      <path
         class="cls-4"
         d="m 88.11,245.48 c -2.23,3.8 -6,5.74 -8.45,4.31 -2.45,-1.43 -2.58,-5.67 -0.35,-9.48 2.23,-3.81 6,-5.74 8.45,-4.32 2.45,1.42 2.59,5.68 0.35,9.49 z"
         id="path40"
         inkscape:connector-curvature="0"
         style="fill:#ffd343" />
      <path
         class="cls-4"
         d="m 86.49,245.29 a 2.67,2.67 0 0 1 -3.64,1 l -9,-5.29 a 2.67,2.67 0 0 1 -1,-3.65 l 0.67,-1.16 a 2.67,2.67 0 0 1 3.65,-0.94 l 9,5.29 a 2.66,2.66 0 0 1 0.95,3.65 z"
         id="path42"
         inkscape:connector-curvature="0"
         style="fill:#ffd343" />
      <path
         class="cls-4"
         d="m 75.65,268.13 c -2.24,3.81 -6,5.75 -8.46,4.31 -2.46,-1.44 -2.58,-5.68 -0.35,-9.48 2.23,-3.8 6,-5.74 8.46,-4.31 2.46,1.43 2.59,5.67 0.35,9.48 z"
         id="path44"
         inkscape:connector-curvature="0"
         style="fill:#ffd343" />
      <path
         class="cls-4"
         d="m 74,267.95 a 2.67,2.67 0 0 1 -3.65,0.95 l -9,-5.28 a 2.67,2.67 0 0 1 -1,-3.65 l 0.67,-1.16 a 2.67,2.67 0 0 1 3.65,-0.94 l 9,5.28 a 2.67,2.67 0 0 1 0.95,3.65 z"
         id="path46"
         inkscape:connector-curvature="0"
         style="fill:#ffd343" />
      <path
         class="cls-5"
         d="m 128.17,33.46 c 0,0 5.09,-9 1.46,-12.6 C 126,17.26 127.22,13.6 122.37,11.18 117.52,8.76 106.63,5.1 100.81,4.62 94.99,4.14 77.57,2.62 69.81,0 l -1.7,3.39 1.58,0.79 z"
         id="path48"
         inkscape:connector-curvature="0"
         style="fill:#374f9a" />
      <path
         class="cls-6"
         d="m 124.29,23.6 q -23.67,-9 -47,-18.94 a 54.42,54.42 0 0 1 -8,-3.76 l -1.17,2.49 1.58,0.79 58.48,29.28 a 24.09,24.09 0 0 0 2.7,-7.79 41.34,41.34 0 0 1 -6.59,-2.07 z"
         id="path50"
         inkscape:connector-curvature="0"
         style="fill:#2a3d71" />
      <path
         class="cls-7"
         d="M 103.83,5.07 96.46,20 101.62,22.86 110,6.59 C 107.85,6 105.73,5.43 103.83,5.07 Z"
         id="path52"
         inkscape:connector-curvature="0"
         style="fill:#bbbbbb" />
      <circle
         class="cls-4"
         cx="107.42"
         cy="154.21001"
         r="4.6399999"
         transform="matrix(0.54,-0.84,0.84,0.54,-80.37,161.83)"
         id="circle54"
         style="fill:#ffd343" />
      <circle
         class="cls-4"
         cx="32.009998"
         cy="272.41"
         r="6.3699999"
         transform="rotate(-57.46,32.026251,272.42623)"
         id="circle56"
         style="fill:#ffd343" />
      <rect
         class="cls-4"
         x="-0.029999999"
         y="212.24001"
         width="138.66"
         height="3.4400001"
         transform="rotate(-57.46,69.312885,213.97016)"
         id="rect58"
         style="fill:#ffd343" />
      <circle
         class="cls-4"
         cx="38.73"
         cy="311.32001"
         r="12.07"
         transform="matrix(0.08,-1,1,0.08,-274.73,324.15)"
         id="circle60"
         style="fill:#ffd343" />
      <polygon
         class="cls-4"
         points="47.93,297.81 37.14,312.84 40.09,311.44 49.05,298.65 "
         id="polygon62"
         style="fill:#ffd343" />
      <path
         class="cls-3"
         d="m 45,301.91 c -3.93,2.3 -9,9.84 -10.49,14.62 z"
         id="path64"
         inkscape:connector-curvature="0"
         style="fill:#f2b529" />
      <path
         class="cls-3"
         d="m 86,291.06 c 0,0 2.28,0.6 5.46,-3.61 3.18,-4.21 28.33,-39 30,-40.86 1.67,-1.86 0,-4.48 0,-4.48 0,0 7,5.18 3.4,10.23 -3.6,5.05 -23.86,35.14 -26.37,38.72 -3.81,5.41 -12.49,0 -12.49,0 z"
         id="path66"
         inkscape:connector-curvature="0"
         style="fill:#f2b529" />
      <line
         class="cls-8"
         x1="46.299999"
         y1="269.72"
         x2="138.00999"
         y2="122.36"
         id="line68"
         style="fill:none;stroke:#ffd343;stroke-width:2.71000004px;stroke-linecap:round;stroke-miterlimit:10" />
      <circle
         class="cls-4"
         cx="46.299999"
         cy="269.72"
         r="4.5100002"
         id="circle70"
         style="fill:#ffd343" />
      <line
         class="cls-8"
         x1="29.450001"
         y1="256.85001"
         x2="125.54"
         y2="110.13"
         id="line72"
         style="fill:none;stroke:#ffd343;stroke-width:2.71000004px;stroke-linecap:round;stroke-miterlimit:10" />
      <circle
         class="cls-4"
         cx="29.450001"
         cy="256.85001"
         r="4.5100002"
         id="circle74"
         style="fill:#ffd343" />
      <path
         class="cls-3"
         d="m 10.51,273.71 -5,-0.16 a 4.87,4.87 0 0 0 -5.05,4.71 L 0,291.09 a 4.9,4.9 0 0 0 4.72,5.05 l 5,0.16 a 4.88,4.88 0 0 0 5.05,-4.72 l 0.43,-12.81 a 4.88,4.88 0 0 0 -4.69,-5.06 z M 4.21,292 a 1.0307764,1.0307764 0 0 1 -2.06,-0.08 l 0.54,-14.76 a 1.0307764,1.0307764 0 1 1 2.06,0.08 z m 3.3,0 A 1.0307764,1.0307764 0 0 1 5.45,291.92 L 6,277.18 a 1.0307764,1.0307764 0 0 1 2.06,0.08 z"
         id="path76"
         inkscape:connector-curvature="0"
         style="fill:#f2b529" />
      <polygon
         class="cls-4"
         points="148.61,64.47 168.98,76.08 166.36,80.54 146.47,68.25 "
         id="polygon78"
         style="fill:#ffd343" />
      <path
         class="cls-4"
         d="m 178,211.9 c -3.79,-11.4 -9.16,-25.9 -12.31,-30.66 -4.36,-6.63 -7.53,-1 -9.3,3.14 -1.77,4.14 -4.88,7 -12.5,10.87 A 147.21,147.21 0 0 0 115.6,214 c -20.41,17.21 -47.35,72.94 -47.35,72.94 0,0 -10.17,16.33 -14.74,14.06 -0.42,-0.2 -0.8,-0.41 -1.17,-0.62 a 33.91,33.91 0 0 0 5.07,7 c 3.7,3.52 14.4,0.88 16.87,0 12.52,-4.48 13.88,-18 20.77,-29.39 2.87,-4.74 5.06,-9.86 7.53,-14.82 8,-16.07 19.64,-30.88 35.36,-39.57 a 93,93 0 0 1 22.73,-8.46 154.71,154.71 0 0 1 17.33,-3.24 z"
         id="path80"
         inkscape:connector-curvature="0"
         style="fill:#ffd343" />
      <circle
         class="cls-3"
         cx="109.86"
         cy="254.02"
         r="12.07"
         id="circle82"
         style="fill:#f2b529" />
      <circle
         class="cls-3"
         cx="90.949997"
         cy="279.38"
         r="12.07"
         id="circle84"
         style="fill:#f2b529" />
      <circle
         class="cls-3"
         cx="67.559998"
         cy="309.51999"
         r="12.07"
         id="circle86"
         style="fill:#f2b529" />
      <path
         class="cls-3"
         d="m 180.81,208.24 c 6.62,18 8.73,33.72 4.7,35.2 -4.03,1.48 -12.64,-11.87 -19.26,-29.83 -6.62,-17.96 -8.72,-33.71 -4.7,-35.2 4.02,-1.49 12.64,11.88 19.26,29.83 z"
         id="path88"
         inkscape:connector-curvature="0"
         style="fill:#f2b529" />
      <circle
         class="cls-4"
         cx="112.57"
         cy="253.12"
         r="12.07"
         id="circle90"
         style="fill:#ffd343" />
      <polygon
         class="cls-4"
         points="98.84,244.93 114.71,254.44 113.07,251.62 99.59,243.75 "
         id="polygon92"
         style="fill:#ffd343" />
      <path
         class="cls-3"
         d="m 103.17,247.53 c 2.62,3.73 10.55,8.15 15.44,9.25 z"
         id="path94"
         inkscape:connector-curvature="0"
         style="fill:#f2b529" />
      <circle
         class="cls-4"
         cx="92.989998"
         cy="278.95999"
         r="12.07"
         id="circle96"
         style="fill:#ffd343" />
      <polygon
         class="cls-4"
         points="78.77,270.9 94.64,280.41 93,277.59 79.51,269.72 "
         id="polygon98"
         style="fill:#ffd343" />
      <path
         class="cls-3"
         d="m 83.1,273.5 c 2.62,3.73 10.55,8.15 15.44,9.25 z"
         id="path100"
         inkscape:connector-curvature="0"
         style="fill:#f2b529" />
      <path
         class="cls-3"
         d="m 86,292 -0.23,-0.14 A 1,1 0 0 0 86,292 Z"
         id="path102"
         inkscape:connector-curvature="0"
         style="fill:#f2b529" />
      <path
         class="cls-3"
         d="m 121.2,242.89 a 2.57,2.57 0 0 1 0,3.57 c -1.68,1.85 -27.5,38.45 -30.69,42.65 -2.5,3.3 -4,3.09 -4.56,2.85 1.39,0.8 8.79,4.76 12.24,-0.14 2.52,-3.58 22.84,-33.66 26.4,-38.72 3.56,-5.06 -3.39,-10.21 -3.39,-10.21 z"
         id="path104"
         inkscape:connector-curvature="0"
         style="fill:#f2b529" />
      <path
         class="cls-4"
         d="m 87.53,292.74 c 0,0 1.6,1.49 4.78,-2.72 3.18,-4.21 29,-40.8 30.69,-42.65 a 2.57,2.57 0 0 0 0,-3.57 c 0,0 7,5.18 3.4,10.23 -3.6,5.05 -23.88,35.14 -26.4,38.72 -3.82,5.4 -12.47,-0.01 -12.47,-0.01 z"
         id="path106"
         inkscape:connector-curvature="0"
         style="fill:#ffd343" />
      <polygon
         class="cls-3"
         points="96.84,290.61 103.29,285.24 105.6,278.58 99.96,282.76 "
         id="polygon108"
         style="fill:#f2b529" />
      <polygon
         class="cls-3"
         points="112.57,267.31 119.02,261.94 121.33,255.28 115.69,259.45 "
         id="polygon110"
         style="fill:#f2b529" />
      <circle
         class="cls-4"
         cx="71.25"
         cy="308.76001"
         r="12.07"
         transform="rotate(-74.75,71.270576,308.77706)"
         id="circle112"
         style="fill:#ffd343" />
      <polygon
         class="cls-4"
         points="59.64,297.25 72.45,310.6 71.61,307.45 60.67,296.31 "
         id="polygon114"
         style="fill:#ffd343" />
      <path
         class="cls-3"
         d="m 63.14,300.89 c 1.55,4.28 8,10.63 12.46,13 z"
         id="path116"
         inkscape:connector-curvature="0"
         style="fill:#f2b529" />
    </g>
  </g>
</svg>
