<?xml version="1.0" encoding="UTF-8" standalone="no"?>
<svg
   xmlns:dc="http://purl.org/dc/elements/1.1/"
   xmlns:cc="http://creativecommons.org/ns#"
   xmlns:rdf="http://www.w3.org/1999/02/22-rdf-syntax-ns#"
   xmlns:svg="http://www.w3.org/2000/svg"
   xmlns="http://www.w3.org/2000/svg"
   xmlns:sodipodi="http://sodipodi.sourceforge.net/DTD/sodipodi-0.dtd"
   xmlns:inkscape="http://www.inkscape.org/namespaces/inkscape"
   viewBox="0 0 99.999998 99.999997"
   version="1.1"
   id="svg120"
   sodipodi:docname="Sax_shadow.svg"
   width="100"
   height="100"
   inkscape:export-filename="D:\Travail\2018 - ..., Web Dev\2018 - Bebra's Tasks\tasks\v01\Bebras\2020\2020-FR-01-play-music\assets\Sax_shadow.png"
   inkscape:export-xdpi="96"
   inkscape:export-ydpi="96"
   inkscape:version="0.92.3 (2405546, 2018-03-11)">
  <metadata
     id="metadata124">
    <rdf:RDF>
      <cc:Work
         rdf:about="">
        <dc:format>image/svg+xml</dc:format>
        <dc:type
           rdf:resource="http://purl.org/dc/dcmitype/StillImage" />
        <dc:title>Sax</dc:title>
      </cc:Work>
    </rdf:RDF>
  </metadata>
  <sodipodi:namedview
     pagecolor="#ffffff"
     bordercolor="#666666"
     borderopacity="1"
     objecttolerance="10"
     gridtolerance="10"
     guidetolerance="10"
     inkscape:pageopacity="0"
     inkscape:pageshadow="2"
     inkscape:window-width="1920"
     inkscape:window-height="1017"
     id="namedview122"
     showgrid="false"
     inkscape:zoom="2.8283796"
     inkscape:cx="-53.497341"
     inkscape:cy="5.966352"
     inkscape:window-x="-8"
     inkscape:window-y="-8"
     inkscape:window-maximized="1"
     inkscape:current-layer="svg120" />
  <defs
     id="defs4">
    <style
       id="style2">.cls-1{fill:#fff4d0;}.cls-2{fill:#d6a854;}.cls-3{fill:#f2b529;}.cls-4{fill:#ffd343;}.cls-5{fill:#374f9a;}.cls-6{fill:#2a3d71;}.cls-7{fill:#bbb;}.cls-8{fill:none;stroke:#ffd343;stroke-linecap:round;stroke-miterlimit:10;stroke-width:2.71px;}</style>
  </defs>
  <title
     id="title6">Sax</title>
  <g
     id="g1526"
     style="fill:#c8c8c8;fill-opacity:1">
    <polygon
       transform="matrix(0.27063134,0,0,0.27063134,24.621118,4.827036)"
       style="fill:#c8c8c8;fill-opacity:1"
       id="polygon8"
       points="106.29,25.41 107.45,23.08 69.69,4.17 86.89,13.95 90.57,16.7 "
       class="cls-1" />
    <path
       style="fill:#c8c8c8;fill-opacity:1;stroke-width:0.27063134"
       inkscape:connector-curvature="0"
       id="path10"
       d="m 29.706281,71.943608 c -0.146141,0.213799 -0.378884,0.313933 -0.508787,0.221918 l -0.495255,-0.343702 c -0.13261,-0.09201 -0.116372,-0.340995 0.03518,-0.554794 L 41.148574,53.470313 c 0.151553,-0.216505 0.376177,-0.313932 0.508787,-0.221918 l 0.495255,0.343702 c 0.129903,0.09201 0.116372,0.340996 -0.03518,0.554794 z"
       class="cls-2" />
    <rect
       style="fill:#c8c8c8;fill-opacity:1;stroke-width:0.27026573"
       id="rect12"
       transform="rotate(-55.195989)"
       height="3.1891358"
       width="0.81890517"
       y="65.266296"
       x="-22.021048"
       class="cls-2" />
    <polygon
       transform="matrix(0.27063134,0,0,0.27063134,24.621118,4.827036)"
       style="fill:#c8c8c8;fill-opacity:1"
       id="polygon14"
       points="29.84,251.99 20.16,245.24 21.9,242.75 31.57,249.5 "
       class="cls-2" />
    <path
       style="fill:#c8c8c8;fill-opacity:1;stroke-width:0.27063134"
       inkscape:connector-curvature="0"
       id="path16"
       d="m 53.037409,10.43993 0.698229,-1.0825254 c 0,0 5.014798,1.0581684 9.255591,1.8754754 4.240793,0.817306 8.118941,0.833544 9.493748,6.056729 0.74153,2.809154 -1.870063,6.224521 -3.612929,9.307012 -1.604843,2.836216 -31.30122,56.697266 -31.30122,56.697266 0,0 -1.020281,1.753691 1.531773,3.001301 1.234079,0.603508 3.9864,-3.824021 3.9864,-3.824021 0,0 7.290808,-15.082284 12.8171,-19.729024 a 39.83964,39.83964 0 0 1 7.658867,-5.066219 c 2.062211,-1.047343 2.909287,-1.829468 3.382892,-2.941763 0.473604,-1.112294 1.339625,-2.644068 2.516871,-0.849782 1.177246,1.794286 3.518207,8.660203 4.275975,11.320509 0.757768,2.660306 3.136617,7.288102 -0.836251,5.141995 -3.972868,-2.146106 -6.692713,-1.353156 -9.277242,1.068994 -2.584529,2.422151 -14.497721,19.266245 -14.497721,19.266245 0,0 -5.745503,7.003939 -13.155389,3.518208 -7.409886,-3.485732 -11.7454,-11.082354 -7.504607,-17.726353 4.240793,-6.643999 39.146823,-57.206053 39.146823,-57.206053 0,0 1.76181,-3.577746 -3.428899,-4.454592 C 58.017025,13.771402 53.037409,10.43993 53.037409,10.43993 Z"
       class="cls-3" />
    <path
       style="fill:#c8c8c8;fill-opacity:1;stroke-width:0.27063134"
       inkscape:connector-curvature="0"
       id="path18"
       d="m 30.077046,78.858239 c 1.033812,-2.492515 3.967455,-6.730601 5.550649,-8.917303 C 44.017266,58.360621 65.770613,26.022883 65.770613,26.022883 65.724606,24.837517 65.326778,24.093281 64.734095,23.5872 l 1.89442,1.166422 c 0,0 2.289541,-3.610223 2.435682,-3.980987 0.695522,-1.89442 0.600801,-4.251619 -0.811894,-5.715734 -0.906615,-0.94721 -2.202939,-1.391045 -3.447844,-1.802405 L 53.608441,9.5495529 53.037409,10.43993 c 0,0 4.979616,3.331472 11.147305,4.373402 5.190709,0.876846 3.428899,4.454592 3.428899,4.454592 0,0 -34.908737,50.53499 -39.146824,57.17899 -3.201568,5.020211 -1.510123,10.57086 2.706314,14.497721 -2.43027,-2.928231 -3.163681,-7.093248 -1.096057,-12.086396 z"
       class="cls-4" />
    <path
       style="fill:#c8c8c8;fill-opacity:1;stroke-width:0.27063134"
       inkscape:connector-curvature="0"
       id="path20"
       d="m 65.665067,40.821004 c -0.60892,1.031106 -1.623788,1.55613 -2.286835,1.169128 -0.663047,-0.387003 -0.700935,-1.537186 -0.09472,-2.568292 0.606214,-1.031105 1.623788,-1.553424 2.286835,-1.166421 0.663047,0.387003 0.700935,1.531774 0.09472,2.565585 z"
       class="cls-4" />
    <path
       style="fill:#c8c8c8;fill-opacity:1;stroke-width:0.27063134"
       inkscape:connector-curvature="0"
       id="path22"
       d="m 65.215819,40.769584 a 0.71717305,0.71717305 0 0 1 -0.985098,0.2571 l -2.435682,-1.428933 a 0.72258568,0.72258568 0 0 1 -0.2571,-0.987805 l 0.184029,-0.30852 a 0.72258568,0.72258568 0 0 1 0.987805,-0.270631 l 2.435682,1.43164 a 0.71987936,0.71987936 0 0 1 0.2571,0.987804 z"
       class="cls-4" />
    <path
       style="fill:#c8c8c8;fill-opacity:1;stroke-width:0.27063134"
       inkscape:connector-curvature="0"
       id="path24"
       d="m 62.127915,46.845258 c -0.606214,1.031105 -1.623788,1.553424 -2.286834,1.166421 -0.663047,-0.387003 -0.700936,-1.53448 -0.09472,-2.565585 0.606214,-1.031106 1.623788,-1.55613 2.286834,-1.169128 0.663047,0.387003 0.698229,1.53448 0.09472,2.568292 z"
       class="cls-4" />
    <path
       style="fill:#c8c8c8;fill-opacity:1;stroke-width:0.27063134"
       inkscape:connector-curvature="0"
       id="path26"
       d="m 61.697612,46.793838 a 0.72258568,0.72258568 0 0 1 -0.987805,0.2571 l -2.435682,-1.43164 a 0.72258568,0.72258568 0 0 1 -0.2571,-0.985098 l 0.18403,-0.30852 a 0.71987936,0.71987936 0 0 1 0.985098,-0.270631 l 2.435682,1.428933 a 0.72258568,0.72258568 0 0 1 0.270631,0.987805 z"
       class="cls-4" />
    <path
       style="fill:#c8c8c8;fill-opacity:1;stroke-width:0.27063134"
       inkscape:connector-curvature="0"
       id="path28"
       d="m 58.588057,52.866805 c -0.603507,1.031106 -1.623788,1.553424 -2.286834,1.169128 -0.663047,-0.384297 -0.698229,-1.537186 -0.09202,-2.568292 0.606214,-1.031105 1.623788,-1.553424 2.286835,-1.166421 0.663047,0.387003 0.695522,1.537186 0.09201,2.565585 z"
       class="cls-4" />
    <path
       style="fill:#c8c8c8;fill-opacity:1;stroke-width:0.27063134"
       inkscape:connector-curvature="0"
       id="path30"
       d="m 58.146928,52.820798 a 0.72529199,0.72529199 0 0 1 -0.987804,0.2571 l -2.435682,-1.43164 A 0.71987936,0.71987936 0 0 1 54.452811,50.66116 l 0.181323,-0.311226 a 0.71987936,0.71987936 0 0 1 0.987804,-0.254394 l 2.435682,1.428934 a 0.72258568,0.72258568 0 0 1 0.2571,0.987804 z"
       class="cls-4" />
    <path
       style="fill:#c8c8c8;fill-opacity:1;stroke-width:0.27063134"
       inkscape:connector-curvature="0"
       id="path32"
       d="m 55.202459,58.999311 c -0.606214,1.028399 -1.623788,1.553424 -2.286834,1.166421 -0.663047,-0.387002 -0.700936,-1.537186 -0.09472,-2.565585 0.606214,-1.028399 1.623788,-1.553424 2.286834,-1.169127 0.663047,0.384296 0.711761,1.537186 0.09472,2.568291 z"
       class="cls-4" />
    <path
       style="fill:#c8c8c8;fill-opacity:1;stroke-width:0.27063134"
       inkscape:connector-curvature="0"
       id="path34"
       d="m 54.774862,58.953304 a 0.72258568,0.72258568 0 0 1 -0.987804,0.270631 l -2.435683,-1.434346 a 0.71987936,0.71987936 0 0 1 -0.270631,-0.985098 l 0.184029,-0.311226 a 0.72258568,0.72258568 0 0 1 0.987805,-0.254393 l 2.435682,1.428933 a 0.72529199,0.72529199 0 0 1 0.254393,0.987805 z"
       class="cls-4" />
    <path
       style="fill:#c8c8c8;fill-opacity:1;stroke-width:0.27063134"
       inkscape:connector-curvature="0"
       id="path36"
       d="m 51.841218,65.131817 c -0.60892,1.031106 -1.623788,1.556131 -2.292247,1.169128 -0.66846,-0.387003 -0.698229,-1.537186 -0.09202,-2.568292 0.606214,-1.031105 1.623788,-1.553423 2.286835,-1.169127 0.663047,0.384297 0.703641,1.531773 0.09743,2.568291 z"
       class="cls-4" />
    <path
       style="fill:#c8c8c8;fill-opacity:1;stroke-width:0.27063134"
       inkscape:connector-curvature="0"
       id="path38"
       d="m 51.413621,65.083104 a 0.71987936,0.71987936 0 0 1 -0.987805,0.254393 l -2.435682,-1.428933 a 0.72529199,0.72529199 0 0 1 -0.2571,-0.987805 l 0.162379,-0.313932 a 0.72258568,0.72258568 0 0 1 0.987805,-0.254393 l 2.435682,1.428933 a 0.71987936,0.71987936 0 0 1 0.257099,0.985098 z"
       class="cls-4" />
    <path
       style="fill:#c8c8c8;fill-opacity:1;stroke-width:0.27063134"
       inkscape:connector-curvature="0"
       id="path40"
       d="m 48.466445,71.261617 c -0.603508,1.028399 -1.623788,1.553424 -2.286834,1.166421 -0.663047,-0.387002 -0.698229,-1.534479 -0.09472,-2.565585 0.603507,-1.031105 1.623788,-1.553424 2.286834,-1.169127 0.663047,0.384296 0.700936,1.537186 0.09472,2.568291 z"
       class="cls-4" />
    <path
       style="fill:#c8c8c8;fill-opacity:1;stroke-width:0.27063134"
       inkscape:connector-curvature="0"
       id="path42"
       d="m 48.028023,71.210197 a 0.72258568,0.72258568 0 0 1 -0.985098,0.270632 l -2.435683,-1.43164 a 0.72258568,0.72258568 0 0 1 -0.270631,-0.987804 l 0.181323,-0.313933 a 0.72258568,0.72258568 0 0 1 0.987805,-0.254393 l 2.435682,1.43164 a 0.71987936,0.71987936 0 0 1 0.257099,0.987804 z"
       class="cls-4" />
    <path
       style="fill:#c8c8c8;fill-opacity:1;stroke-width:0.27063134"
       inkscape:connector-curvature="0"
       id="path44"
       d="m 45.094379,77.391417 c -0.606214,1.031106 -1.623788,1.55613 -2.289541,1.166421 -0.665753,-0.389709 -0.698229,-1.537186 -0.09472,-2.565585 0.603508,-1.028399 1.623788,-1.553424 2.289541,-1.166421 0.665753,0.387003 0.700935,1.53448 0.09472,2.565585 z"
       class="cls-4" />
    <path
       style="fill:#c8c8c8;fill-opacity:1;stroke-width:0.27063134"
       inkscape:connector-curvature="0"
       id="path46"
       d="m 44.647837,77.342704 a 0.72258568,0.72258568 0 0 1 -0.987804,0.257099 L 41.224351,76.17087 a 0.72258568,0.72258568 0 0 1 -0.270632,-0.987805 l 0.181323,-0.313932 a 0.72258568,0.72258568 0 0 1 0.987805,-0.254393 l 2.435682,1.428933 a 0.72258568,0.72258568 0 0 1 0.2571,0.987805 z"
       class="cls-4" />
    <path
       style="fill:#c8c8c8;fill-opacity:1;stroke-width:0.27063134"
       inkscape:connector-curvature="0"
       id="path48"
       d="m 59.307937,13.882361 c 0,0 1.377513,-2.435682 0.395122,-3.409955 C 58.720667,9.4981329 59.050837,8.5076222 57.738275,7.8526944 56.425713,7.1977665 53.478538,6.2072558 51.903463,6.0773528 50.328389,5.9474497 45.613991,5.5360901 43.513892,4.827036 l -0.460073,0.9174402 0.427597,0.2137988 z"
       class="cls-5" />
    <path
       style="fill:#c8c8c8;fill-opacity:1;stroke-width:0.27063134"
       inkscape:connector-curvature="0"
       id="path50"
       d="M 58.257887,11.213936 Q 51.852043,8.7782536 45.538214,6.088178 a 14.727758,14.727758 0 0 1 -2.16505,-1.0175738 l -0.316639,0.673872 0.427597,0.2137988 15.826521,7.924086 a 6.519509,6.519509 0 0 0 0.730705,-2.108219 11.1879,11.1879 0 0 1 -1.783461,-0.560206 z"
       class="cls-6" />
    <path
       style="fill:#c8c8c8;fill-opacity:1;stroke-width:0.27063134"
       inkscape:connector-curvature="0"
       id="path52"
       d="m 52.72077,6.1991369 -1.994553,4.0405261 1.396458,0.774005 2.26789,-4.4031715 C 53.808708,6.450824 53.23497,6.2965642 52.72077,6.1991369 Z"
       class="cls-7" />
    <circle
       style="fill:#c8c8c8;fill-opacity:1;stroke-width:0.2702522"
       id="circle54"
       transform="rotate(-57.264775)"
       r="1.2539701"
       cy="70.383598"
       cx="-10.318156"
       class="cls-4" />
    <circle
       style="fill:#c8c8c8;fill-opacity:1;stroke-width:0.27063134"
       id="circle56"
       transform="rotate(-57.460001)"
       r="1.7239217"
       cy="70.311623"
       cx="-48.321327"
       class="cls-4" />
    <rect
       style="fill:#c8c8c8;fill-opacity:1;stroke-width:0.27063134"
       id="rect58"
       transform="rotate(-57.460001)"
       height="0.9309718"
       width="37.525742"
       y="69.845184"
       x="-48.318943"
       class="cls-4" />
    <circle
       style="fill:#c8c8c8;fill-opacity:1;stroke-width:0.27149597"
       id="circle60"
       transform="rotate(-85.426078)"
       r="3.2769563"
       cy="42.331669"
       cx="-85.708076"
       class="cls-4" />
    <polygon
       transform="matrix(0.27063134,0,0,0.27063134,24.621118,4.827036)"
       style="fill:#c8c8c8;fill-opacity:1"
       id="polygon62"
       points="47.93,297.81 37.14,312.84 40.09,311.44 49.05,298.65 "
       class="cls-4" />
    <path
       style="fill:#c8c8c8;fill-opacity:1;stroke-width:0.27063134"
       inkscape:connector-curvature="0"
       id="path64"
       d="m 36.799528,86.533344 c -1.063581,0.622452 -2.435682,2.663012 -2.838922,3.95663 z"
       class="cls-3" />
    <path
       style="fill:#c8c8c8;fill-opacity:1;stroke-width:0.27063134"
       inkscape:connector-curvature="0"
       id="path66"
       d="m 47.895413,83.596994 c 0,0 0.61704,0.162379 1.477647,-0.976979 0.860608,-1.139358 7.666986,-10.554623 8.118941,-11.057997 0.451954,-0.503374 0,-1.212428 0,-1.212428 0,0 1.894419,1.40187 0.920146,2.768558 -0.974273,1.366689 -6.457264,9.509986 -7.136548,10.478846 -1.031106,1.464115 -3.380186,0 -3.380186,0 z"
       class="cls-3" />
    <circle
       style="fill:#c8c8c8;fill-opacity:1;stroke-width:0.27063134"
       id="circle70"
       r="1.2205474"
       cy="77.821724"
       cx="37.151348"
       class="cls-4" />
    <circle
       style="fill:#c8c8c8;fill-opacity:1;stroke-width:0.27063134"
       id="circle74"
       r="1.2205474"
       cy="74.338699"
       cx="32.591209"
       class="cls-4" />
    <path
       style="fill:#c8c8c8;fill-opacity:1;stroke-width:0.27063134"
       inkscape:connector-curvature="0"
       id="path76"
       d="m 27.465453,78.90154 -1.353156,-0.0433 a 1.3179746,1.3179746 0 0 0 -1.366689,1.274674 l -0.12449,3.4722 a 1.3260936,1.3260936 0 0 0 1.27738,1.366688 l 1.353157,0.0433 a 1.3206809,1.3206809 0 0 0 1.366688,-1.27738 l 0.116371,-3.466787 A 1.3206809,1.3206809 0 0 0 27.465453,78.90154 Z m -1.704977,4.949847 a 0.27896061,0.27896061 0 0 1 -0.557501,-0.02165 l 0.146141,-3.994519 a 0.27896061,0.27896061 0 1 1 0.557501,0.02165 z m 0.893083,0 a 0.2789604,0.2789604 0 0 1 -0.5575,-0.02165 l 0.148847,-3.989106 a 0.27896061,0.27896061 0 0 1 0.557501,0.02165 z"
       class="cls-3" />
    <polygon
       transform="matrix(0.27063134,0,0,0.27063134,24.621118,4.827036)"
       style="fill:#c8c8c8;fill-opacity:1"
       id="polygon78"
       points="148.61,64.47 168.98,76.08 166.36,80.54 146.47,68.25 "
       class="cls-4" />
    <path
       style="fill:#c8c8c8;fill-opacity:1;stroke-width:0.27063134"
       inkscape:connector-curvature="0"
       id="path80"
       d="m 72.793497,62.173817 c -1.025693,-3.085197 -2.478984,-7.009352 -3.331472,-8.297557 -1.179953,-1.794286 -2.037854,-0.270631 -2.516872,0.849782 -0.479017,1.120414 -1.320681,1.89442 -3.382891,2.941763 a 39.83964,39.83964 0 0 0 -7.656161,5.074338 c -5.523586,4.657565 -12.814394,19.73985 -12.814394,19.73985 0,0 -2.752321,4.419409 -3.989106,3.805076 -0.113665,-0.05413 -0.216505,-0.110959 -0.316639,-0.167791 a 9.1771087,9.1771087 0 0 0 1.372101,1.894419 c 1.001336,0.952623 3.897092,0.238156 4.565551,0 3.388304,-1.212428 3.756363,-4.871364 5.621013,-7.953855 0.776712,-1.282792 1.369394,-2.668425 2.037854,-4.010756 2.165051,-4.349046 5.315199,-8.357096 9.569524,-10.708882 a 25.168715,25.168715 0 0 1 6.15145,-2.289542 41.869375,41.869375 0 0 1 4.690042,-0.876845 z"
       class="cls-4" />
    <circle
       style="fill:#c8c8c8;fill-opacity:1;stroke-width:0.27063134"
       id="circle82"
       r="3.2665203"
       cy="73.572807"
       cx="54.352676"
       class="cls-3" />
    <circle
       style="fill:#c8c8c8;fill-opacity:1;stroke-width:0.27063134"
       id="circle84"
       r="3.2665203"
       cy="80.43602"
       cx="49.235039"
       class="cls-3" />
    <circle
       style="fill:#c8c8c8;fill-opacity:1;stroke-width:0.27063134"
       id="circle86"
       r="3.2665203"
       cy="88.592842"
       cx="42.904972"
       class="cls-3" />
    <path
       style="fill:#c8c8c8;fill-opacity:1;stroke-width:0.27063134"
       inkscape:connector-curvature="0"
       id="path88"
       d="m 73.553971,61.183306 c 1.791579,4.871364 2.362611,9.125689 1.271967,9.526223 -1.090644,0.400535 -3.42078,-3.212394 -5.21236,-8.072932 -1.791579,-4.860539 -2.359905,-9.122983 -1.271967,-9.526224 1.087938,-0.40324 3.42078,3.215101 5.21236,8.072933 z"
       class="cls-3" />
    <circle
       style="fill:#c8c8c8;fill-opacity:1;stroke-width:0.27063134"
       id="circle90"
       r="3.2665203"
       cy="73.329239"
       cx="55.086086"
       class="cls-4" />
    <polygon
       transform="matrix(0.27063134,0,0,0.27063134,24.621118,4.827036)"
       style="fill:#c8c8c8;fill-opacity:1"
       id="polygon92"
       points="98.84,244.93 114.71,254.44 113.07,251.62 99.59,243.75 "
       class="cls-4" />
    <path
       style="fill:#c8c8c8;fill-opacity:1;stroke-width:0.27063134"
       inkscape:connector-curvature="0"
       id="path94"
       d="m 52.542153,71.816412 c 0.709054,1.009454 2.855161,2.205645 4.178548,2.503339 z"
       class="cls-3" />
    <circle
       style="fill:#c8c8c8;fill-opacity:1;stroke-width:0.27063134"
       id="circle96"
       r="3.2665203"
       cy="80.32235"
       cx="49.787125"
       class="cls-4" />
    <polygon
       transform="matrix(0.27063134,0,0,0.27063134,24.621118,4.827036)"
       style="fill:#c8c8c8;fill-opacity:1"
       id="polygon98"
       points="78.77,270.9 94.64,280.41 93,277.59 79.51,269.72 "
       class="cls-4" />
    <path
       style="fill:#c8c8c8;fill-opacity:1;stroke-width:0.27063134"
       inkscape:connector-curvature="0"
       id="path100"
       d="m 47.110582,78.844707 c 0.709054,1.009455 2.855161,2.205646 4.178548,2.50334 z"
       class="cls-3" />
    <path
       style="fill:#c8c8c8;fill-opacity:1;stroke-width:0.27063134"
       inkscape:connector-curvature="0"
       id="path102"
       d="m 47.895413,83.851387 -0.06224,-0.03789 a 0.27063134,0.27063134 0 0 0 0.06224,0.03789 z"
       class="cls-3" />
    <path
       style="fill:#c8c8c8;fill-opacity:1;stroke-width:0.27063134"
       inkscape:connector-curvature="0"
       id="path104"
       d="m 57.421636,70.560682 a 0.69552254,0.69552254 0 0 1 0,0.966154 c -0.45466,0.500668 -7.442361,10.405775 -8.305675,11.542427 -0.676579,0.893083 -1.082526,0.836251 -1.234079,0.771299 0.376177,0.216505 2.378849,1.288205 3.312527,-0.03789 0.681991,-0.968861 6.18122,-9.109451 7.144668,-10.478846 0.963447,-1.369394 -0.917441,-2.763146 -0.917441,-2.763146 z"
       class="cls-3" />
    <path
       style="fill:#c8c8c8;fill-opacity:1;stroke-width:0.27063134"
       inkscape:connector-curvature="0"
       id="path106"
       d="m 48.309479,84.051654 c 0,0 0.43301,0.403241 1.293618,-0.736117 0.860608,-1.139358 7.848309,-11.041758 8.305676,-11.542426 a 0.69552254,0.69552254 0 0 0 0,-0.966154 c 0,0 1.894419,1.40187 0.920146,2.768558 -0.974272,1.366689 -6.462676,9.509986 -7.144667,10.478846 -1.033812,1.461409 -3.374773,-0.0027 -3.374773,-0.0027 z"
       class="cls-4" />
    <polygon
       transform="matrix(0.27063134,0,0,0.27063134,24.621118,4.827036)"
       style="fill:#c8c8c8;fill-opacity:1"
       id="polygon108"
       points="96.84,290.61 103.29,285.24 105.6,278.58 99.96,282.76 "
       class="cls-3" />
    <polygon
       transform="matrix(0.27063134,0,0,0.27063134,24.621118,4.827036)"
       style="fill:#c8c8c8;fill-opacity:1"
       id="polygon110"
       points="112.57,267.31 119.02,261.94 121.33,255.28 115.69,259.45 "
       class="cls-3" />
    <circle
       style="fill:#c8c8c8;fill-opacity:1;stroke-width:0.27063134"
       id="circle112"
       transform="rotate(-74.75)"
       r="3.2665203"
       cy="65.608192"
       cx="-73.735359"
       class="cls-4" />
    <polygon
       transform="matrix(0.27063134,0,0,0.27063134,24.621118,4.827036)"
       style="fill:#c8c8c8;fill-opacity:1"
       id="polygon114"
       points="59.64,297.25 72.45,310.6 71.61,307.45 60.67,296.31 "
       class="cls-4" />
    <path
       style="fill:#c8c8c8;fill-opacity:1;stroke-width:0.27063134"
       inkscape:connector-curvature="0"
       id="path116"
       d="m 41.708781,86.2573 c 0.419478,1.158302 2.165051,2.876811 3.372066,3.518207 z"
       class="cls-3" />
  </g>
</svg>
