<?xml version="1.0" encoding="UTF-8" standalone="no"?>
<svg
   xmlns:dc="http://purl.org/dc/elements/1.1/"
   xmlns:cc="http://creativecommons.org/ns#"
   xmlns:rdf="http://www.w3.org/1999/02/22-rdf-syntax-ns#"
   xmlns:svg="http://www.w3.org/2000/svg"
   xmlns="http://www.w3.org/2000/svg"
   xmlns:sodipodi="http://sodipodi.sourceforge.net/DTD/sodipodi-0.dtd"
   xmlns:inkscape="http://www.inkscape.org/namespaces/inkscape"
   viewBox="0 0 100 100"
   version="1.1"
   id="svg44"
   sodipodi:docname="Trompette_shadow.svg"
   width="100"
   height="100"
   inkscape:export-filename="D:\Travail\2018 - ..., Web Dev\2018 - Bebra's Tasks\tasks\v01\Bebras\2020\2020-FR-01-play-music\assets\Trompette_shadow.png"
   inkscape:export-xdpi="96"
   inkscape:export-ydpi="96"
   inkscape:version="0.92.3 (2405546, 2018-03-11)">
  <metadata
     id="metadata48">
    <rdf:RDF>
      <cc:Work
         rdf:about="">
        <dc:format>image/svg+xml</dc:format>
        <dc:type
           rdf:resource="http://purl.org/dc/dcmitype/StillImage" />
        <dc:title>Trompette</dc:title>
      </cc:Work>
    </rdf:RDF>
  </metadata>
  <sodipodi:namedview
     pagecolor="#ffffff"
     bordercolor="#666666"
     borderopacity="1"
     objecttolerance="10"
     gridtolerance="10"
     guidetolerance="10"
     inkscape:pageopacity="0"
     inkscape:pageshadow="2"
     inkscape:window-width="1920"
     inkscape:window-height="1017"
     id="namedview46"
     showgrid="false"
     inkscape:zoom="4.0508068"
     inkscape:cx="6.5197465"
     inkscape:cy="14.612405"
     inkscape:window-x="-8"
     inkscape:window-y="-8"
     inkscape:window-maximized="1"
     inkscape:current-layer="svg44" />
  <defs
     id="defs4">
    <style
       id="style2">.cls-1,.cls-2{fill:none;stroke:#f2b529;stroke-miterlimit:10;}.cls-1{stroke-width:7.49px;}.cls-2{stroke-width:6.97px;}.cls-3{fill:#ffd343;}.cls-4{fill:#f2b529;}</style>
  </defs>
  <title
     id="title6">Trompette</title>
  <path
     class="cls-1"
     d="m 47.018636,58.135469 8.717453,8.70218 c 0,0 2.084857,2.245231 -0.381842,4.692838 -2.260505,2.260505 -5.406883,-1.050065 -5.406883,-1.050065 l -7.545198,-7.545198"
     id="path8"
     inkscape:connector-curvature="0"
     style="fill:none;fill-opacity:1;stroke:#c8c8c8;stroke-width:2.85999656px;stroke-miterlimit:10;stroke-opacity:1" />
  <path
     class="cls-2"
     d="m 31.928239,52.293286 -7.969043,-8.221058 c 0,0 -1.90921,-2.119223 0.336021,-4.433186 2.069584,-2.134497 4.963946,0.992789 4.963946,0.992789 l 6.907522,7.125172"
     id="path10"
     inkscape:connector-curvature="0"
     style="fill:none;fill-opacity:1;stroke:#c8c8c8;stroke-width:2.6614387px;stroke-miterlimit:10;stroke-opacity:1" />
  <rect
     class="cls-3"
     x="-74.649422"
     y="-4.0742974"
     width="5.7238116"
     height="22.555408"
     transform="matrix(-0.70710678,-0.70710678,-0.70710678,0.70710678,0,0)"
     id="rect12"
     style="fill:#c8c8c8;fill-opacity:1;stroke-width:0.38184202" />
  <rect
     class="cls-3"
     x="-75.116028"
     y="-6.7871857"
     width="6.6478696"
     height="3.146378"
     transform="matrix(-0.70710678,-0.70710678,-0.70710678,0.70710678,0,0)"
     id="rect14"
     style="fill:#c8c8c8;fill-opacity:1;stroke-width:0.38184202" />
  <rect
     class="cls-4"
     x="-71.613197"
     y="-6.7877374"
     width="3.146378"
     height="3.146378"
     transform="matrix(-0.70710678,-0.70710678,-0.70710678,0.70710678,0,0)"
     id="rect16"
     style="fill:#c8c8c8;fill-opacity:1;stroke-width:0.38184202" />
  <polygon
     class="cls-4"
     points="131.44,144.54 151.55,143.32 144.95,158.04 107.34,120.44 117.94,109.84 125.74,117.65 "
     id="polygon18"
     style="fill:#c8c8c8;fill-opacity:1"
     transform="matrix(-0.38184202,0,0,0.38184202,95.065817,5.5061837)" />
  <rect
     class="cls-3"
     x="-67.062424"
     y="-4.0742183"
     width="5.7238116"
     height="22.555408"
     transform="matrix(-0.70710678,-0.70710678,-0.70710678,0.70710678,0,0)"
     id="rect20"
     style="fill:#c8c8c8;fill-opacity:1;stroke-width:0.38184202" />
  <polygon
     class="cls-4"
     points="146.08,131.08 165.6,129.28 159,143.99 121.39,106.39 131.99,95.79 139.79,103.6 "
     id="polygon22"
     style="fill:#c8c8c8;fill-opacity:1"
     transform="matrix(-0.38184202,0,0,0.38184202,95.065817,5.5061837)" />
  <rect
     class="cls-3"
     x="-67.508339"
     y="-6.7861733"
     width="6.6478696"
     height="3.146378"
     transform="matrix(-0.70710678,-0.70710678,-0.70710678,0.70710678,0,0)"
     id="rect24"
     style="fill:#c8c8c8;fill-opacity:1;stroke-width:0.38184202" />
  <rect
     class="cls-4"
     x="-64.005508"
     y="-6.7867284"
     width="3.146378"
     height="3.146378"
     transform="matrix(-0.70710678,-0.70710678,-0.70710678,0.70710678,0,0)"
     id="rect26"
     style="fill:#c8c8c8;fill-opacity:1;stroke-width:0.38184202" />
  <rect
     class="cls-3"
     x="-60.126637"
     y="-7.0483794"
     width="6.6478696"
     height="3.146378"
     transform="matrix(-0.70710678,-0.70710678,-0.70710678,0.70710678,0,0)"
     id="rect28"
     style="fill:#c8c8c8;fill-opacity:1;stroke-width:0.38184202" />
  <rect
     class="cls-4"
     x="-56.623817"
     y="-7.0489402"
     width="3.146378"
     height="3.146378"
     transform="matrix(-0.70710678,-0.70710678,-0.70710678,0.70710678,0,0)"
     id="rect30"
     style="fill:#c8c8c8;fill-opacity:1;stroke-width:0.38184202" />
  <rect
     class="cls-3"
     x="-59.7579"
     y="-4.256506"
     width="5.7238116"
     height="22.555408"
     transform="matrix(-0.70710678,-0.70710678,-0.70710678,0.70710678,0,0)"
     id="rect32"
     style="fill:#c8c8c8;fill-opacity:1;stroke-width:0.38184202" />
  <polygon
     class="cls-4"
     points="159.94,117.53 178.79,115.41 172.19,130.13 134.59,92.53 145.19,81.93 152.99,89.74 "
     id="polygon34"
     style="fill:#c8c8c8;fill-opacity:1"
     transform="matrix(-0.38184202,0,0,0.38184202,95.065817,5.5061837)" />
  <path
     class="cls-3"
     d="M 5.1038371,9.1756855 8.5060495,5.6894679 a 0.79041298,0.79041298 0 0 1 1.1035234,0.09546 l 1.2944441,1.2486234 a 0.79041298,0.79041298 0 0 1 0.118371,1.1035234 l -0.08019,0.084005 a 2.4743363,2.4743363 0 0 1 0.221468,1.3479023 l 7.61393,7.445919 c 0.286381,-0.232923 0.904965,-0.03437 1.416634,0.465847 l 10.172271,9.927893 a 2.4285152,2.4285152 0 0 1 0.36275,0.450574 9.2367585,9.2367585 0 0 1 0.809505,0.679678 l 30.448083,29.768404 c 2.718715,2.207047 10.168453,8.175238 13.146821,9.591872 3.661865,1.745018 6.327122,3.436578 14.189249,3.207473 7.862127,-0.229105 5.215962,2.772173 5.215962,2.772173 l -9.782793,10.03099 -9.813339,10.027171 c 0,0 -2.928729,2.711078 -2.894363,-5.151049 0.03437,-7.862127 -1.703015,-10.4892 -3.535857,-14.109062 a 24.151508,24.151508 0 0 0 -1.809931,-2.821813 7.7743035,7.7743035 0 0 1 -1.802295,3.085284 7.6024746,7.6024746 0 0 1 -5.517617,2.187954 v 0 c -2.944002,0 -6.021648,-1.359357 -8.446345,-3.730596 L 48.96603,71.721408 18.479763,41.937731 c 0,0 -6.846427,-6.644051 -0.286381,-13.364471 a 9.6453294,9.6453294 0 0 1 4.379728,-2.718715 l -5.403065,-5.26942 c -0.515487,-0.500213 -0.7255,-1.118797 -0.500213,-1.405179 L 9.0597204,11.745482 A 2.4781547,2.4781547 0 0 1 7.7041812,11.554561 l -0.076368,0.08019 A 0.79041298,0.79041298 0 0 1 6.520471,11.543106 L 5.2260265,10.279209 A 0.79041298,0.79041298 0 0 1 5.1038371,9.1756855 Z M 21.641415,31.960199 c 0,0 -3.325844,3.104375 0.179466,6.533317 l 30.486267,29.783677 3.276204,2.745444 a 5.6856277,5.6856277 0 0 0 2.913455,0.859145 3.5244018,3.5244018 0 0 0 2.58507,-0.992789 c 0.7255,-0.740774 1.638102,-2.291052 1.500639,-3.516765 -0.09164,-0.790413 -0.645313,-1.527368 -1.118797,-2.233776 -1.214257,-1.462455 -2.291052,-2.737807 -2.955457,-3.501491 L 28.17855,31.998383 c -3.505309,-3.436578 -6.537135,-0.03818 -6.537135,-0.03818 z"
     id="path36"
     inkscape:connector-curvature="0"
     style="fill:#c8c8c8;fill-opacity:1;stroke-width:0.38184202" />
  <path
     class="cls-4"
     d="m 85.82524,84.967508 c -5.914733,6.071288 -11.420895,10.27155 -12.299131,9.412406 -0.878237,-0.859145 3.211291,-6.464586 9.118387,-12.505326 5.907096,-6.040741 11.424713,-10.279187 12.30295,-9.420043 0.878237,0.859145 -3.207473,6.460767 -9.122206,12.512963 z"
     id="path38"
     inkscape:connector-curvature="0"
     style="fill:#c8c8c8;fill-opacity:1;stroke-width:0.38184202" />
  <path
     class="cls-4"
     d="m 5.1038371,9.1756855 1.1035234,-1.145526 0.1030974,0.1298262 2.2261389,2.1192233 1.4853652,0.847689 7.201541,7.01062 c 0,0 44.083661,40.79982 50.231318,48.845231 6.147656,8.045411 10.809947,19.676319 10.535021,19.985611 l 2.94782,0.84769 -5.983464,6.109472 c 0,0 -2.928728,2.711078 -2.894363,-5.151049 0.03437,-7.862127 -1.703015,-10.4892 -3.535857,-14.109063 a 18.672075,18.672075 0 0 0 -1.210439,-1.955031 1.8061128,1.8061128 0 0 0 -0.198558,-0.660586 1.8710259,1.8710259 0 0 0 -1.54646,-0.966061 0.87059981,0.87059981 0 0 0 -0.484939,0.09928 1.2218945,1.2218945 0 0 0 -0.381842,0.526942 8.5303507,8.5303507 0 0 1 -7.094625,4.505736 3.3029335,3.3029335 0 0 0 -1.176074,0.160374 1.099705,1.099705 0 0 0 -0.305473,0.198557 13.429384,13.429384 0 0 1 -5.181596,-3.192199 L 48.973667,71.706135 18.4874,41.922457 c 0,0 -6.846428,-6.644051 -0.286382,-13.364471 a 9.6453294,9.6453294 0 0 1 4.379728,-2.718715 l -5.410701,-5.254146 c -0.515487,-0.500213 -0.7255,-1.118797 -0.500213,-1.405179 L 9.0597204,11.745482 A 2.4781547,2.4781547 0 0 1 7.7041812,11.554561 l -0.076368,0.08019 A 0.79041298,0.79041298 0 0 1 6.520471,11.543106 L 5.2260265,10.279209 A 0.79041298,0.79041298 0 0 1 5.1038371,9.1756855 Z M 22.111081,31.532536 c -0.469666,-0.343658 -1.722108,-0.958424 -3.299115,0.698771 -3.054737,2.825631 0.106915,6.781514 0.106915,6.781514 l 35.160014,33.91139 c 0,0 2.355965,2.649983 5.322877,0.53076 a 2.8065388,2.8065388 0 0 0 1.023337,-2.058128 3.1311046,3.1311046 0 0 0 0.656768,-0.50785 c 0.7255,-0.740774 1.638102,-2.291052 1.500639,-3.516765 -0.09164,-0.790413 -0.645313,-1.527368 -1.118797,-2.233776 -1.214257,-1.462455 -2.291052,-2.737807 -2.955457,-3.501491 L 28.17855,31.998383 c -2.684349,-2.63471 -5.086135,-1.25626 -6.067469,-0.465847 z"
     id="path40"
     inkscape:connector-curvature="0"
     style="fill:#c8c8c8;fill-opacity:1;stroke-width:0.38184202" />
</svg>
