<?xml version="1.0" encoding="UTF-8" standalone="no"?>
<svg
   xmlns:dc="http://purl.org/dc/elements/1.1/"
   xmlns:cc="http://creativecommons.org/ns#"
   xmlns:rdf="http://www.w3.org/1999/02/22-rdf-syntax-ns#"
   xmlns:svg="http://www.w3.org/2000/svg"
   xmlns="http://www.w3.org/2000/svg"
   xmlns:sodipodi="http://sodipodi.sourceforge.net/DTD/sodipodi-0.dtd"
   xmlns:inkscape="http://www.inkscape.org/namespaces/inkscape"
   viewBox="0 0 100 100"
   version="1.1"
   id="svg79"
   sodipodi:docname="Violon_shadow.svg"
   width="100"
   height="100"
   inkscape:export-filename="D:\Travail\2018 - ..., Web Dev\2018 - Bebra's Tasks\tasks\v01\Bebras\2020\2020-FR-01-play-music\assets\Violon_shadow.png"
   inkscape:export-xdpi="96"
   inkscape:export-ydpi="96"
   inkscape:version="0.92.3 (2405546, 2018-03-11)">
  <metadata
     id="metadata83">
    <rdf:RDF>
      <cc:Work
         rdf:about="">
        <dc:format>image/svg+xml</dc:format>
        <dc:type
           rdf:resource="http://purl.org/dc/dcmitype/StillImage" />
        <dc:title>Vilon</dc:title>
      </cc:Work>
    </rdf:RDF>
  </metadata>
  <sodipodi:namedview
     pagecolor="#ffffff"
     bordercolor="#666666"
     borderopacity="1"
     objecttolerance="10"
     gridtolerance="10"
     guidetolerance="10"
     inkscape:pageopacity="0"
     inkscape:pageshadow="2"
     inkscape:window-width="1920"
     inkscape:window-height="1017"
     id="namedview81"
     showgrid="false"
     inkscape:zoom="2.9223292"
     inkscape:cx="68.89657"
     inkscape:cy="58.521585"
     inkscape:window-x="-8"
     inkscape:window-y="-8"
     inkscape:window-maximized="1"
     inkscape:current-layer="svg79" />
  <defs
     id="defs9">
    <style
       id="style2">.cls-1{fill:#538dca;}.cls-2{fill:url(#radial-gradient);}.cls-3{fill:#305e95;}.cls-4{fill:#5c4c41;}.cls-5{fill:#2f5e95;}.cls-6{fill:#1e1e1e;opacity:0.2;}.cls-7{fill:#fff4d0;}</style>
    <radialGradient
       id="radial-gradient"
       cx="85.400002"
       cy="311.76999"
       r="181.38"
       gradientUnits="userSpaceOnUse">
      <stop
         offset="0"
         stop-color="#305e95"
         id="stop4" />
      <stop
         offset="1"
         stop-color="#305e95"
         stop-opacity="0"
         id="stop6" />
    </radialGradient>
  </defs>
  <title
     id="title11">Vilon</title>
  <g
     id="Layer_2"
     data-name="Layer 2"
     transform="matrix(0.29317442,0.07855585,-0.07855585,0.29317442,38.860209,-6.12147)"
     style="fill:#c8c8c8;fill-opacity:1">
    <g
       id="Layer_1-2"
       data-name="Layer 1"
       style="fill:#c8c8c8;fill-opacity:1">
      <path
         class="cls-1"
         d="m 119.29,278 c -0.15,-3.25 -0.36,-6.49 -0.61,-9.72 -0.25,-3.23 -0.93,-6.66 -0.21,-9.91 a 6.48,6.48 0 0 1 1.17,-2.61 c 1.17,-1.54 2.45,-1.57 2.57,-3.72 0.08,-1.5 -0.3,-3.26 -2.09,-3.3 -3.05,-0.07 -16.45,1.71 -11,-25.41 5.45,-27.12 15.79,-18.33 15.79,-18.33 0,0 2.12,1.89 3.75,0.73 1.63,-1.16 0.28,-2.63 0.27,-4.92 -0.01,-2.29 -0.69,-5.31 3.53,-10.14 4.22,-4.83 12.48,-17.36 9.74,-33.5 -2.74,-16.14 -16.93,-25.67 -20.73,-27.39 -3.8,-1.72 -14.9,-5.71 -14.9,-5.71 0,0 -11.39,-3 -15.49,-3.79 -4.1,-0.79 -21.21,-1 -32.64,10.71 -11.43,11.71 -11.79,26.72 -11.07,33.09 0.72,6.37 -1.57,8.48 -2.88,10.35 -1.31,1.87 -3.25,2.33 -2.58,4.2 0.67,1.87 3.5,1.54 3.5,1.54 0,0 13.63,-1.36 2.61,24 -11.02,25.36 -21,16.28 -23.54,14.6 -1.51,-1 -2.82,0.25 -3.61,1.52 -1.12,1.84 -0.09,2.58 0,4.52 a 6.55,6.55 0 0 1 -0.51,2.82 c -1.25,3.08 -3.75,5.5 -5.82,8 -2.07,2.5 -4.08,5.05 -6,7.64 -11,14.48 -11.75,39.91 0.28,53.51 12.03,13.6 37.3,20.79 37.3,20.79 0,0 24.88,8.55 42.48,4.23 17.6,-4.32 31.52,-25.65 30.69,-43.8 z"
         id="path13"
         inkscape:connector-curvature="0"
         style="fill:#c8c8c8;fill-opacity:1" />
      <path
         class="cls-1"
         d="m 119.29,278 c -0.15,-3.25 -0.36,-6.49 -0.61,-9.72 -0.25,-3.23 -0.93,-6.66 -0.21,-9.91 a 6.48,6.48 0 0 1 1.17,-2.61 c 1.17,-1.54 2.45,-1.57 2.57,-3.72 0.08,-1.5 -0.3,-3.26 -2.09,-3.3 -3.05,-0.07 -16.45,1.71 -11,-25.41 5.45,-27.12 15.79,-18.33 15.79,-18.33 0,0 2.12,1.89 3.75,0.73 1.63,-1.16 0.28,-2.63 0.27,-4.92 -0.01,-2.29 -0.69,-5.31 3.53,-10.14 4.22,-4.83 12.48,-17.36 9.74,-33.5 -2.74,-16.14 -16.93,-25.67 -20.73,-27.39 -3.8,-1.72 -14.9,-5.71 -14.9,-5.71 0,0 -11.39,-3 -15.49,-3.79 -4.1,-0.79 -21.21,-1 -32.64,10.71 -11.43,11.71 -11.79,26.72 -11.07,33.09 0.72,6.37 -1.57,8.48 -2.88,10.35 -1.31,1.87 -3.25,2.33 -2.58,4.2 0.67,1.87 3.5,1.54 3.5,1.54 0,0 13.63,-1.36 2.61,24 -11.02,25.36 -21,16.28 -23.54,14.6 -1.51,-1 -2.82,0.25 -3.61,1.52 -1.12,1.84 -0.09,2.58 0,4.52 a 6.55,6.55 0 0 1 -0.51,2.82 c -1.25,3.08 -3.75,5.5 -5.82,8 -2.07,2.5 -4.08,5.05 -6,7.64 -11,14.48 -11.75,39.91 0.28,53.51 12.03,13.6 37.3,20.79 37.3,20.79 0,0 24.88,8.55 42.48,4.23 17.6,-4.32 31.52,-25.65 30.69,-43.8 z"
         id="path15"
         inkscape:connector-curvature="0"
         style="fill:#c8c8c8;fill-opacity:1" />
      <path
         class="cls-2"
         d="m 77.22,317.64 c -14.15,0 -29.25,-5 -29.4,-5.09 H 47.7 47.56 c -1,-0.28 -24,-7.07 -34.74,-19.18 -4.78,-5.4 -7.49,-13.72 -7.44,-22.83 0.05,-9.11 2.75,-17.74 7.41,-23.85 1.82,-2.4 3.76,-4.85 5.93,-7.5 0.41,-0.5 0.84,-1 1.27,-1.5 l 0.07,-0.08 a 28.41,28.41 0 0 0 5.3,-7.83 12.18,12.18 0 0 0 0.88,-3.65 14.53,14.53 0 0 0 5.5,1.1 c 8.23,0 15.18,-6.81 21.24,-20.8 5.32,-12.26 6.15,-20.89 2.53,-26.41 a 11.27,11.27 0 0 0 -5.25,-4.29 c 1.65,-2.51 3.17,-5.94 2.47,-12.16 -0.32,-2.83 -1.37,-17.53 9.57,-28.72 8.5,-8.71 20.89,-9.39 24.48,-9.39 a 20.94,20.94 0 0 1 3.33,0.22 c 3.52,0.64 13,3.14 14.87,3.64 1.8,0.65 11,4 14.28,5.47 2.94,1.32 15.32,9.64 17.64,23.38 2.62,15.44 -6.61,26.92 -8.49,29.06 -4.12,4.71 -4.82,8.4 -4.9,11.4 a 11.38,11.38 0 0 0 -2.54,-0.29 c -8.23,0 -14,8.07 -17.17,24 -2.5,12.55 -1.59,21.24 2.78,26.57 a 14,14 0 0 0 8,4.85 11.9,11.9 0 0 0 -1.36,3.54 28.4,28.4 0 0 0 -0.1,9.46 c 0.07,0.68 0.15,1.36 0.2,2 0.27,3.41 0.46,6.53 0.6,9.54 0.35,7.67 -2.38,16.36 -7.49,23.82 -5.11,7.46 -12.11,12.81 -19.11,14.53 a 42.77,42.77 0 0 1 -10.1,0.99 z m 51.1,-116.59 v 0 l -0.21,0.34 z"
         id="path17"
         style="fill:#c8c8c8;fill-opacity:1"
         inkscape:connector-curvature="0" />
      <path
         class="cls-3"
         d="m 86.77,125.65 a 20.69,20.69 0 0 1 3.29,0.21 c 3.5,0.64 13,3.14 14.81,3.62 1.82,0.66 11,4 14.28,5.47 2.92,1.31 15.19,9.56 17.49,23.19 2.6,15.32 -6.56,26.72 -8.43,28.85 -4,4.62 -4.83,8.4 -4.95,11.25 A 11.61,11.61 0 0 0 121,198 c -8.37,0 -14.23,8.14 -17.42,24.18 -2.58,12.64 -1.58,21.4 2.8,26.82 a 14.21,14.21 0 0 0 7.8,4.86 12.22,12.22 0 0 0 -1.21,3.31 28.68,28.68 0 0 0 -0.1,9.57 c 0.07,0.67 0.14,1.33 0.2,2 0.27,3.41 0.46,6.53 0.6,9.53 0.35,7.62 -2.37,16.25 -7.45,23.66 -5.08,7.41 -12,12.72 -19,14.43 a 42.55,42.55 0 0 1 -10,1.07 c -14.19,0 -29.17,-5 -29.32,-5.08 H 47.75 47.63 C 47.39,312.28 23.77,305.4 13.01,293.24 8.28,287.89 5.59,279.63 5.64,270.58 c 0.05,-9.05 2.73,-17.63 7.36,-23.7 1.83,-2.4 3.76,-4.85 5.92,-7.49 0.41,-0.5 0.84,-1 1.27,-1.5 l 0.06,-0.07 a 28.6,28.6 0 0 0 5.34,-7.9 12.54,12.54 0 0 0 0.86,-3.39 14.71,14.71 0 0 0 5.28,1 c 8.34,0 15.37,-6.86 21.48,-21 5.36,-12.34 6.18,-21.06 2.51,-26.65 a 11.51,11.51 0 0 0 -5.08,-4.26 c 1.53,-2.41 3,-6 2.34,-12.07 -0.32,-2.81 -1.36,-17.4 9.5,-28.51 8.43,-8.64 20.73,-9.31 24.3,-9.31 m 0,-0.51 c -3.62,0 -16.09,0.68 -24.66,9.47 -11,11.28 -10,26.08 -9.64,28.93 0.7,6.18 -0.83,9.64 -2.6,12.25 a 11.08,11.08 0 0 1 5.43,4.3 c 3.57,5.44 2.73,14 -2.55,26.16 -6,13.89 -12.89,20.65 -21,20.65 a 14.33,14.33 0 0 1 -5.76,-1.31 11.85,11.85 0 0 1 -0.88,3.93 28.2,28.2 0 0 1 -5.26,7.76 c -0.46,0.53 -0.91,1.05 -1.34,1.58 -2.17,2.64 -4.1,5.1 -5.93,7.5 -4.69,6.15 -7.41,14.9 -7.46,24 -0.05,9.1 2.68,17.55 7.5,23 10.87,12.29 34.63,19.19 34.86,19.26 h 0.13 0.12 c 0.15,0.05 15.21,5.11 29.48,5.11 v 0 a 43.06,43.06 0 0 0 10.16,-1.08 c 7.06,-1.74 14.08,-7.07 19.26,-14.64 5.18,-7.57 7.89,-16.25 7.53,-24 -0.14,-3 -0.34,-6.14 -0.6,-9.54 -0.05,-0.67 -0.13,-1.35 -0.2,-2 a 28.2,28.2 0 0 1 0.09,-9.38 11.62,11.62 0 0 1 1.51,-3.77 13.89,13.89 0 0 1 -8.2,-4.84 c -4.32,-5.27 -5.21,-13.89 -2.73,-26.36 3.14,-15.77 8.83,-23.77 16.92,-23.77 a 11.13,11.13 0 0 1 2.79,0.36 c 0,-3.15 0.75,-6.87 4.84,-11.55 1.89,-2.16 11.19,-13.72 8.55,-29.27 -2.34,-13.85 -14.82,-22.23 -17.79,-23.57 -3.3,-1.49 -12.8,-4.94 -14.32,-5.48 -1.52,-0.54 -11.32,-3 -14.89,-3.64 a 21.21,21.21 0 0 0 -3.38,-0.22 z m 41.48,76 0.07,0.06 v 0 0 z"
         id="path19"
         inkscape:connector-curvature="0"
         style="fill:#c8c8c8;fill-opacity:1" />
      <rect
         class="cls-4"
         x="129.52"
         y="34.049999"
         width="2.4100001"
         height="19.780001"
         rx="1.11"
         ry="1.11"
         transform="rotate(-72.65,130.71687,43.945539)"
         id="rect21"
         style="fill:#c8c8c8;fill-opacity:1" />
      <path
         class="cls-4"
         d="m 121.93,42.94 a 2.36,2.36 0 0 1 -3,1.55 v 0 a 2.36,2.36 0 0 1 -1.54,-3 l 1,-3.19 a 2.35,2.35 0 0 1 3,-1.55 v 0 a 2.36,2.36 0 0 1 1.55,3 z"
         id="path23"
         inkscape:connector-curvature="0"
         style="fill:#c8c8c8;fill-opacity:1" />
      <rect
         class="cls-4"
         x="132.92"
         y="23.18"
         width="2.4000001"
         height="19.780001"
         rx="1.11"
         ry="1.11"
         transform="rotate(-72.65,134.11147,33.07316)"
         id="rect25"
         style="fill:#c8c8c8;fill-opacity:1" />
      <path
         class="cls-4"
         d="m 125.33,32.07 a 2.36,2.36 0 0 1 -3,1.55 v 0 a 2.36,2.36 0 0 1 -1.54,-3 l 1,-3.19 a 2.36,2.36 0 0 1 3,-1.55 v 0 a 2.36,2.36 0 0 1 1.55,3 z"
         id="path27"
         inkscape:connector-curvature="0"
         style="fill:#c8c8c8;fill-opacity:1" />
      <path
         class="cls-4"
         d="m 128.16,24.77 a 1.11,1.11 0 0 1 1.4,-0.73 l 16.75,5.24 a 1.11,1.11 0 0 1 0.73,1.39 l -0.05,0.18 a 1.11,1.11 0 0 1 -1.39,0.73 L 128.85,26.34 A 1.11,1.11 0 0 1 128.1,25 Z"
         id="path29"
         inkscape:connector-curvature="0"
         style="fill:#c8c8c8;fill-opacity:1" />
      <path
         class="cls-4"
         d="m 146.36,28.81 a 2.36,2.36 0 0 1 3,-1.55 v 0 a 2.36,2.36 0 0 1 1.55,3 l -1,3.19 a 2.36,2.36 0 0 1 -3,1.55 v 0 a 2.36,2.36 0 0 1 -1.55,-3 z"
         id="path31"
         inkscape:connector-curvature="0"
         style="fill:#c8c8c8;fill-opacity:1" />
      <rect
         class="cls-4"
         x="132.97"
         y="28.790001"
         width="2.4000001"
         height="19.780001"
         rx="1.11"
         ry="1.11"
         transform="rotate(-72.65,134.16485,38.686001)"
         id="rect33"
         style="fill:#c8c8c8;fill-opacity:1" />
      <path
         class="cls-4"
         d="m 143,39.68 a 2.36,2.36 0 0 1 3,-1.54 v 0 a 2.36,2.36 0 0 1 1.55,3 l -1,3.19 a 2.36,2.36 0 0 1 -3,1.55 v 0 a 2.36,2.36 0 0 1 -1.55,-3 z"
         id="path35"
         inkscape:connector-curvature="0"
         style="fill:#c8c8c8;fill-opacity:1" />
      <path
         class="cls-4"
         d="m 146.73,20.32 a 3.07,3.07 0 0 1 -4,1.77 l -7.86,-2.46 a 3.07,3.07 0 0 1 -2.25,-3.71 l 4.37,-14 a 3.08,3.08 0 0 1 4,-1.77 l 7.86,2.46 a 3.08,3.08 0 0 1 2.25,3.71 z"
         id="path37"
         inkscape:connector-curvature="0"
         style="fill:#c8c8c8;fill-opacity:1" />
      <path
         class="cls-4"
         d="M 152.44,18.41 A 1.52,1.52 0 0 1 150.6,19.5 L 129.95,13 a 1.51,1.51 0 0 1 -0.89,-1.94 L 130.35,7 a 1.52,1.52 0 0 1 1.83,-1.09 l 20.66,6.46 a 1.52,1.52 0 0 1 0.89,1.94 z"
         id="path39"
         inkscape:connector-curvature="0"
         style="fill:#c8c8c8;fill-opacity:1" />
      <path
         class="cls-4"
         d="M 143.48,22.06 134.24,19.17 122.6,49 l 13.58,4.24 z m -14.27,24.85 c -0.12,0.37 -0.44,0.6 -0.71,0.51 l -0.76,-0.24 a 0.64,0.64 0 0 1 -0.29,-0.83 l 6.83,-21.85 c 0.12,-0.38 0.44,-0.61 0.72,-0.52 l 0.76,0.24 a 0.64,0.64 0 0 1 0.29,0.84 z m 4.49,1.4 c -0.12,0.37 -0.44,0.6 -0.71,0.51 l -0.76,-0.24 a 0.63,0.63 0 0 1 -0.29,-0.83 l 6.83,-21.85 c 0.12,-0.38 0.44,-0.61 0.72,-0.52 l 0.76,0.24 a 0.64,0.64 0 0 1 0.29,0.84 z"
         id="path41"
         inkscape:connector-curvature="0"
         style="fill:#c8c8c8;fill-opacity:1" />
      <rect
         class="cls-4"
         x="128.5"
         y="44.279999"
         width="1.52"
         height="14.47"
         transform="rotate(-72.65,129.25264,51.522714)"
         id="rect43"
         style="fill:#c8c8c8;fill-opacity:1" />
      <polygon
         class="cls-4"
         points="135.87,54.38 122.2,50.11 73.06,192.5 84.12,195.95 95.18,199.41 "
         id="polygon45"
         style="fill:#c8c8c8;fill-opacity:1" />
      <path
         class="cls-5"
         d="m 41.83,232.2 c 2.63,0.14 4,-3.48 1.62,-4.93 a 2.6,2.6 0 0 0 -3.79,1.13 6.31,6.31 0 0 0 0.63,5.16 5.67,5.67 0 0 0 6.66,2.36 12.32,12.32 0 0 0 5.39,-4 20.15,20.15 0 0 0 2.58,-4.5 c 2.51,-5.83 5.72,-18.11 7.51,-20.18 1.79,-2.07 2.51,-3.48 3.91,-3.22 a 3.18,3.18 0 0 1 1.9,0.84 c 0.47,0.65 -0.09,0.82 -0.47,1.24 -1.27,1.4 -0.65,3.81 1.52,3.57 1.17,-0.13 1.62,-1.31 1.67,-2.34 a 4,4 0 0 0 -1.73,-3.2 c -2.42,-2 -5.55,-1.44 -7.71,0.61 a 18.24,18.24 0 0 0 -4.64,7.73 L 52.5,225 a 27.21,27.21 0 0 1 -1.76,4 c -1.11,2.06 -2.48,4.19 -4.58,5.36 A 4,4 0 0 1 44,235 c -0.59,0 -1.9,-0.51 -2.15,-1.11 a 2.85,2.85 0 0 1 -0.02,-1.69 z"
         id="path47"
         inkscape:connector-curvature="0"
         style="fill:#c8c8c8;fill-opacity:1" />
      <path
         class="cls-5"
         d="m 98.46,250.16 c -2.25,-1.38 -1.29,-5.13 1.47,-5 a 2.6,2.6 0 0 1 2.48,3.09 c -0.34,1.71 -2,3.14 -3.45,3.89 a 5.67,5.67 0 0 1 -6.82,-1.86 12.37,12.37 0 0 1 -2.14,-6.36 20.28,20.28 0 0 1 0.44,-5.16 c 1.26,-6.22 5.61,-18.14 5.32,-20.86 -0.29,-2.72 -0.09,-4.3 -1.39,-4.87 a 3.19,3.19 0 0 0 -2,-0.39 c -0.74,0.27 -0.39,0.73 -0.32,1.29 0.25,1.88 -1.63,3.51 -3.27,2.07 -0.89,-0.78 -0.58,-2 0,-2.87 A 4,4 0 0 1 92,211.46 c 3.12,-0.25 5.38,2 6,4.9 a 18.28,18.28 0 0 1 -0.59,9 l -3.66,12.84 a 27.59,27.59 0 0 0 -0.79,4.25 c -0.26,2.33 -0.35,4.86 0.72,7 a 4,4 0 0 0 1.32,1.73 3.07,3.07 0 0 0 2.4,0.32 2.82,2.82 0 0 0 1.06,-1.34 z"
         id="path49"
         inkscape:connector-curvature="0"
         style="fill:#c8c8c8;fill-opacity:1" />
      <path
         class="cls-5"
         d="m 84.86,238.12 a 0.62,0.62 0 0 1 -0.77,0.44 L 59.89,231 a 0.63,0.63 0 0 1 -0.39,-0.8 l 0.24,-0.76 a 0.64,0.64 0 0 1 0.78,-0.45 l 24.2,7.56 a 0.64,0.64 0 0 1 0.38,0.81 z"
         id="path51"
         inkscape:connector-curvature="0"
         style="fill:#c8c8c8;fill-opacity:1" />
      <path
         class="cls-4"
         d="m 53.14,319.49 a 0.73,0.73 0 0 1 -0.92,0.49 l -12.49,-3.9 a 0.73,0.73 0 0 1 -0.47,-0.92 l 0.89,-2.86 a 0.74,0.74 0 0 1 0.91,-0.49 l 12.49,3.9 a 0.74,0.74 0 0 1 0.48,0.92 z"
         id="path53"
         inkscape:connector-curvature="0"
         style="fill:#c8c8c8;fill-opacity:1" />
      <polygon
         class="cls-6"
         points="67.25,242.45 88.19,248.85 83.69,237.75 61.62,230.95 "
         id="polygon55"
         style="opacity:0.2;fill:#c8c8c8;fill-opacity:1" />
      <path
         class="cls-6"
         d="m 114.87,127.42 -12.54,74.7 a 2.19,2.19 0 0 1 -3,1.65 L 73.06,192.49 Z"
         id="path57"
         inkscape:connector-curvature="0"
         style="opacity:0.2;fill:#c8c8c8;fill-opacity:1" />
      <polygon
         class="cls-4"
         points="135.87,54.38 122.2,50.11 73.06,192.5 84.12,195.95 95.18,199.41 "
         id="polygon59"
         style="fill:#c8c8c8;fill-opacity:1" />
      <polygon
         class="cls-6"
         points="135.87,54.64 128.34,52.29 83.69,196.07 84.12,196.21 95.18,199.66 "
         id="polygon61"
         style="opacity:0.2;fill:#c8c8c8;fill-opacity:1" />
      <path
         class="cls-6"
         d="m 75.91,261.76 1.65,2.87 a 7.87,7.87 0 0 1 -0.59,8.73 c 0,0 -11.63,13.44 -14.56,18.9 -2.93,5.46 -2.73,9.55 -4.44,14.53 -1.71,4.98 -7.74,10.77 -7.74,10.77 L 46.65,318.68 65,261.76 Z"
         id="path63"
         inkscape:connector-curvature="0"
         style="opacity:0.2;fill:#c8c8c8;fill-opacity:1" />
      <path
         class="cls-4"
         d="M 75.91,261.76 64.66,258.24 53.4,254.72 c -1.8,5.76 -1.66,27.19 -1.66,27.19 C 52,290 46,300.46 43.27,309 c -2.73,8.54 2.58,9.36 2.58,9.36 0,0 4.79,2.35 7.47,-6.23 2.68,-8.58 3.68,-20.57 8.47,-27.11 0,0.04 12.31,-17.5 14.12,-23.26 z"
         id="path65"
         inkscape:connector-curvature="0"
         style="fill:#c8c8c8;fill-opacity:1" />
      <path
         class="cls-6"
         d="m 68.67,259.49 c -4,11.42 -12.62,21 -15.4,32.79 -0.53,2.22 -0.83,4.49 -1.27,6.73 a 85.22,85.22 0 0 1 -4.38,14.48 16.53,16.53 0 0 1 -2.5,4.65 3.21,3.21 0 0 0 0.74,0.24 c 0,0 4.79,2.35 7.47,-6.23 2.68,-8.58 3.68,-20.57 8.47,-27.11 0,0 12.31,-17.54 14.12,-23.3 z"
         id="path67"
         inkscape:connector-curvature="0"
         style="opacity:0.2;fill:#c8c8c8;fill-opacity:1" />
      <path
         class="cls-7"
         d="m 56.25,257.7 c 2.43,-13.53 11,-38.5 11.13,-38.74 L 124.38,50.8 125,51 68,219.17 c -0.08,0.25 -8.68,25.16 -11.1,38.65 z"
         id="path69"
         inkscape:connector-curvature="0"
         style="fill:#c8c8c8;fill-opacity:1" />
      <rect
         class="cls-7"
         x="-14.46"
         y="155.17999"
         width="217.74001"
         height="0.64999998"
         transform="rotate(-72.65,94.395447,155.50113)"
         id="rect71"
         style="fill:#c8c8c8;fill-opacity:1" />
      <path
         class="cls-7"
         d="m 71.87,262.58 -0.6,-0.27 c 5.69,-12.46 12.81,-37.84 12.88,-38.09 L 133,53.51 133.63,53.69 84.79,224.4 c -0.07,0.25 -7.21,25.68 -12.92,38.18 z"
         id="path73"
         inkscape:connector-curvature="0"
         style="fill:#c8c8c8;fill-opacity:1" />
      <rect
         class="cls-7"
         x="-10.17"
         y="156.53"
         width="217.74001"
         height="0.63999999"
         transform="rotate(-72.65,98.687876,156.84465)"
         id="rect75"
         style="fill:#c8c8c8;fill-opacity:1" />
    </g>
  </g>
</svg>
